<svg xmlns="http://www.w3.org/2000/svg" viewBox="0 0 500 500"><g id="freepik--Banknotes--inject-45"><polygon points="338.98 277.1 256.62 235.52 340.39 68.57 422.75 110.15 338.98 277.1" style="fill:#BA68C8;stroke:#263238;stroke-miterlimit:10"></polygon><path d="M404.47,126.5a11.14,11.14,0,0,1-4.92-15,12.63,12.63,0,0,1,.7-1.18L353,86.48a10,10,0,0,1-.53,1.27,11.13,11.13,0,0,1-14.95,4.92,5.82,5.82,0,0,1-.6-.34L273.66,218.58l.63.28a11.13,11.13,0,0,1,4.92,14.95,10.1,10.1,0,0,1-.71,1.19l47.29,23.87a11.41,11.41,0,0,1,.53-1.27,11.15,11.15,0,0,1,15-4.92,10,10,0,0,1,1.18.71L405.74,127A10,10,0,0,1,404.47,126.5Zm-73.79,62.68a18.24,18.24,0,1,1,24.51-8.06A18.25,18.25,0,0,1,330.68,189.18Z" style="fill:#fff;stroke:#263238;stroke-linecap:round;stroke-linejoin:round"></path><polygon points="337.83 277.46 260.46 227.21 361.81 70.3 439.18 120.55 337.83 277.46" style="fill:#BA68C8;stroke:#263238;stroke-miterlimit:10"></polygon><path d="M419.24,134.83a11.14,11.14,0,0,1-3.28-15.4,13.18,13.18,0,0,1,.83-1.1L372.37,89.47a11.94,11.94,0,0,1-.67,1.21A11.13,11.13,0,0,1,356.3,94c-.19-.12-.37-.27-.56-.4L279.23,212.21c.2.11.4.22.59.35A11.13,11.13,0,0,1,283.1,228a11.87,11.87,0,0,1-.83,1.11l44.42,28.85a13.13,13.13,0,0,1,.67-1.21,11.14,11.14,0,0,1,15.4-3.27,13.18,13.18,0,0,1,1.1.83L420.44,135.5A11.8,11.8,0,0,1,419.24,134.83ZM339.1,189.16a18.25,18.25,0,1,1,25.24-5.37A18.25,18.25,0,0,1,339.1,189.16Z" style="fill:#fff;stroke:#263238;stroke-linecap:round;stroke-linejoin:round"></path><polygon points="336.32 277.73 266.64 217.25 388.74 75.89 458.41 136.36 336.32 277.73" style="fill:#BA68C8;stroke:#263238;stroke-miterlimit:10"></polygon><path d="M436.68,147.74a11.09,11.09,0,0,1-.14-16.68l-40-34.72a11.75,11.75,0,0,1-.83,1.1A11.13,11.13,0,0,1,380,98.55c-.18-.16-.34-.32-.5-.48L287.31,205c.18.14.37.27.54.43a11.09,11.09,0,0,1,.14,16.68l40,34.72a12.67,12.67,0,0,1,.83-1.1,11,11,0,0,1,16.68-.14l92.28-107A9.61,9.61,0,0,1,436.68,147.74ZM349.8,190.46a18.25,18.25,0,1,1,25.74-1.82A18.24,18.24,0,0,1,349.8,190.46Z" style="fill:#fff;stroke:#263238;stroke-linecap:round;stroke-linejoin:round"></path><polygon points="336.11 282.27 275.15 213.03 415.05 89.25 476.01 158.5 336.11 282.27" style="fill:#BA68C8;stroke:#263238;stroke-miterlimit:10"></polygon><path d="M453,166.87a11.14,11.14,0,0,1,1-15.71,10.68,10.68,0,0,1,1.1-.84l-35-39.76a11.06,11.06,0,0,1-16.68,0c-.16-.18-.29-.36-.43-.54L297.27,203.64c.16.17.33.32.48.5a11.13,11.13,0,0,1-1,15.71,12.19,12.19,0,0,1-1.09.84l35,39.76a10,10,0,0,1,1-1,11.12,11.12,0,0,1,15.71,1,10.91,10.91,0,0,1,.84,1.09l105.76-93.72A11.33,11.33,0,0,1,453,166.87Zm-91.81,30.71a18.24,18.24,0,1,1,25.75,1.64A18.25,18.25,0,0,1,361.14,197.58Z" style="fill:#fff;stroke:#263238;stroke-linecap:round;stroke-linejoin:round"></path></g><g id="freepik--credit-card--inject-45"><path d="M318.24,358.73,489.83,287a6,6,0,0,0,3.21-7.81L450.3,176.93a6,6,0,0,0-7.82-3.21L270.89,245.43a6,6,0,0,0-3.21,7.81l42.74,102.28A6,6,0,0,0,318.24,358.73Z" style="fill:#263238;stroke:#263238;stroke-linecap:round;stroke-linejoin:round"></path><rect x="287.73" y="249.96" width="21.23" height="21.23" rx="5" transform="matrix(-0.92, -0.4, 0.4, -0.92, 468.7, 618.19)" style="fill:#fff;stroke:#263238;stroke-miterlimit:10"></rect><rect x="452.85" y="270.28" width="20.95" height="8.67" transform="translate(996.71 349.34) rotate(157.32)" style="fill:#fff;stroke:#263238;stroke-miterlimit:10"></rect><rect x="427.19" y="281" width="20.95" height="8.67" transform="translate(951.51 379.86) rotate(157.32)" style="fill:#fff;stroke:#263238;stroke-miterlimit:10"></rect><rect x="401.53" y="291.73" width="20.95" height="8.67" transform="translate(906.31 410.37) rotate(157.32)" style="fill:#fff;stroke:#263238;stroke-miterlimit:10"></rect><rect x="375.87" y="302.45" width="20.95" height="8.67" transform="translate(861.11 440.88) rotate(157.32)" style="fill:#fff;stroke:#263238;stroke-miterlimit:10"></rect><rect x="350.21" y="313.17" width="20.95" height="8.67" transform="translate(815.91 471.39) rotate(157.32)" style="fill:#fff;stroke:#263238;stroke-miterlimit:10"></rect><rect x="324.55" y="323.89" width="20.95" height="8.67" transform="translate(770.7 501.9) rotate(157.32)" style="fill:#fff;stroke:#263238;stroke-miterlimit:10"></rect><rect x="413.23" y="224.05" width="45.51" height="33.95" rx="3.31" transform="translate(931.19 295.31) rotate(157.32)" style="fill:#fff;stroke:#263238;stroke-miterlimit:10"></rect><rect x="344.71" y="209.62" width="99.69" height="5.06" transform="translate(840.4 255.76) rotate(157.32)" style="fill:#fff;stroke:#263238;stroke-miterlimit:10"></rect></g><g id="freepik--Device--inject-45"><path d="M321.18,65.66v311.5a15.49,15.49,0,0,1-15.48,15.48H171.11a15.49,15.49,0,0,1-15.48-15.48V65.65A15.47,15.47,0,0,1,171.1,50.18h57.77l0,.18c1.44,5.18,4.75,8.55,8.43,8.55h2.11c3.68,0,7-3.37,8.43-8.55l.06-.18H305.7A15.48,15.48,0,0,1,321.18,65.66Z" style="fill:#fff;stroke:#263238;stroke-linecap:round;stroke-linejoin:round"></path><path d="M321.18,141.3V65.66A15.48,15.48,0,0,0,305.7,50.18H248l-.06.18c-1.44,5.18-4.75,8.55-8.43,8.55h-2.11c-3.68,0-7-3.37-8.43-8.55l0-.18H171.1a15.47,15.47,0,0,0-15.47,15.47V141.3Z" style="fill:#BA68C8;stroke:#263238;stroke-miterlimit:10"></path><rect x="179.35" y="242.09" width="117.07" height="49.65" rx="9.6" style="fill:#BA68C8;stroke:#263238;stroke-miterlimit:10"></rect><path d="M321.18,80.15V65.66A15.48,15.48,0,0,0,305.7,50.18H248l-.06.18c-1.44,5.18-4.75,8.55-8.43,8.55h-2.11c-3.68,0-7-3.37-8.43-8.55l0-.18H171.1a15.47,15.47,0,0,0-15.47,15.47v14.5Z" style="fill:#dbdbdb;stroke:#263238;stroke-linecap:round;stroke-linejoin:round"></path><path d="M155.63,374.72v2.44a15.49,15.49,0,0,0,15.48,15.48H305.7a15.49,15.49,0,0,0,15.48-15.48v-2.44Z" style="fill:#dbdbdb;stroke:#263238;stroke-linecap:round;stroke-linejoin:round"></path><path d="M331.71,140.06V109H328.9V69.12a24.56,24.56,0,0,0-24.56-24.55H172.47a24.56,24.56,0,0,0-24.56,24.55v316.5a24.56,24.56,0,0,0,24.56,24.55H304.34a24.56,24.56,0,0,0,24.56-24.55v-219h2.81V148.19H328.9v-8.13Zm-10.53,228a24.56,24.56,0,0,1-24.55,24.56H180.18a24.56,24.56,0,0,1-24.55-24.56V74.73a24.55,24.55,0,0,1,24.55-24.55h48.69l0,.18c1.44,5.18,4.75,8.55,8.43,8.55h2.11c3.68,0,7-3.37,8.43-8.55l.06-.18h48.68a24.55,24.55,0,0,1,24.55,24.55Z" style="fill:#BA68C8;stroke:#263238;stroke-linecap:round;stroke-linejoin:round"></path><path d="M302.37,48H174.44a23.68,23.68,0,0,0-23.68,23.68V383.11a23.68,23.68,0,0,0,23.68,23.68H302.37a23.68,23.68,0,0,0,23.68-23.68V71.63A23.68,23.68,0,0,0,302.37,48Zm18.81,321a23.69,23.69,0,0,1-23.68,23.69H179.31A23.69,23.69,0,0,1,155.63,369V73.85A23.67,23.67,0,0,1,179.3,50.18h49.57l0,.18c1.44,5.18,4.75,8.55,8.43,8.55h2.11c3.68,0,7-3.37,8.43-8.55l.06-.18H297.5a23.68,23.68,0,0,1,23.68,23.68Z" style="fill:#263238;stroke:#263238;stroke-linecap:round;stroke-linejoin:round"></path><path d="M240.2,51.35a2.31,2.31,0,1,0-2.3,2.31A2.3,2.3,0,0,0,240.2,51.35Z" style="fill:#fff"></path><path d="M170.34,60.19c0,2.33-2.62,3.17-2.63,5v.12h2.54V66h-3.39v-.66c0-2.5,2.62-3,2.62-5.16,0-.8-.26-1.22-.9-1.22s-.91.46-.91,1.14v.69h-.81V60.2c0-1.18.54-2,1.74-2S170.34,59,170.34,60.19Z" style="fill:#263238"></path><path d="M174.58,60.18v.19a1.55,1.55,0,0,1-.94,1.6,1.54,1.54,0,0,1,.94,1.6v.6c0,1.18-.56,2-1.75,2s-1.73-.77-1.73-2v-.54h.8v.59c0,.7.29,1.12.91,1.12s.91-.41.91-1.2v-.59c0-.77-.33-1.13-1-1.15h-.46v-.78h.51a.93.93,0,0,0,.93-1.06v-.35c0-.8-.28-1.21-.91-1.21s-.91.44-.91,1.13v.4h-.8v-.35c0-1.19.55-2,1.73-2S174.58,59,174.58,60.18Z" style="fill:#263238"></path><path d="M176.25,60.76v1.07h-.83V60.76Zm0,4.21V66h-.83V65Z" style="fill:#263238"></path><path d="M178,61.46a1.25,1.25,0,0,1,1.15-.64c1,0,1.44.73,1.44,1.83v1.52c0,1.18-.56,2-1.75,2s-1.73-.77-1.73-2v-.52h.8v.57c0,.7.29,1.12.91,1.12s.91-.42.91-1.12v-1.5c0-.7-.29-1.12-.91-1.12a.84.84,0,0,0-.87.83v.18h-.81l.21-4.3h3v.77h-2.28Z" style="fill:#263238"></path><path d="M184.88,60.16v.15h-.81v-.2c0-.7-.28-1.11-.91-1.11s-.94.42-.94,1.25V62a1.24,1.24,0,0,1,1.24-.83c1,0,1.44.72,1.44,1.83v1.18c0,1.18-.58,2-1.77,2s-1.78-.77-1.78-2v-4c0-1.23.56-2,1.78-2S184.88,59,184.88,60.16Zm-2.66,2.9v1.16c0,.7.28,1.12.91,1.12s.92-.42.92-1.12V63.06c0-.7-.3-1.12-.92-1.12S182.22,62.36,182.22,63.06Z" style="fill:#263238"></path><rect x="267.15" y="60.5" width="2.18" height="5.46" style="fill:#263238"></rect><rect x="270.06" y="59.41" width="2.18" height="6.55" style="fill:#263238"></rect><rect x="272.97" y="58.63" width="2.18" height="7.33" style="fill:#263238"></rect><rect x="275.89" y="57.28" width="2.18" height="8.68" style="fill:#263238"></rect><path d="M305.1,65.82H292v-8H305.1Zm-12.38-.73h11.65V58.53H292.72Z" style="fill:#263238"></path><rect x="293.81" y="59.33" width="6.92" height="4.97" style="fill:#263238"></rect><rect x="304.64" y="60.87" width="1.65" height="1.89" style="fill:#263238"></rect><path d="M287.19,64.07a.45.45,0,0,1-.25-.07c-2.67-1.58-4.43-.11-4.51,0a.47.47,0,0,1-.68-.05.48.48,0,0,1,0-.68c.1-.09,2.35-2,5.65-.06a.49.49,0,0,1,.17.67A.47.47,0,0,1,287.19,64.07Z" style="fill:#263238"></path><path d="M288.18,62.43a.43.43,0,0,1-.25-.07c-3.86-2.29-6.45-.08-6.48,0a.49.49,0,0,1-.65-.74s3.16-2.7,7.63,0a.5.5,0,0,1,.17.67A.52.52,0,0,1,288.18,62.43Z" style="fill:#263238"></path><path d="M289.07,60.52a.47.47,0,0,1-.25-.07c-4.88-2.9-8.13-.17-8.27-.05a.48.48,0,0,1-.69,0,.49.49,0,0,1,.05-.68s3.89-3.34,9.41-.06a.49.49,0,0,1,.17.67A.47.47,0,0,1,289.07,60.52Z" style="fill:#263238"></path><path d="M285.72,64.89a1.23,1.23,0,1,1-1.23-1.22A1.23,1.23,0,0,1,285.72,64.89Z" style="fill:#263238"></path><text transform="translate(202.24 190.64)" style="font-size:24.365219116210938px">$80.99</text><path d="M202.91,120.08V103.23H209v1.22h-4.49v6.33h3.66V112h-3.66v7h4.53v1.18Z"></path><path d="M210.64,113.9v-1.2h4.41v1.2Z"></path><path d="M219.5,120.08l-2.85-16.85H218l2.23,13.69,2.54-13.44h1.31l2.6,13.46,2.06-13.71h1.33l-2.72,16.85h-1.23l-2.69-13.9-2.64,13.9Z"></path><path d="M230.72,120.08l3.56-16.85h1.66l3.58,16.85H238l-.83-4.51h-4l-.85,4.51Zm2.62-5.66h3.58l-1.81-9.09Z"></path><path d="M241.56,120.08V103.23h1.58V118.9h4.79v1.18Z"></path><path d="M249.51,120.08V103.23h1.58V118.9h4.79v1.18Z"></path><path d="M257.44,120.08V103.23h6.1v1.22H259v6.33h3.66V112H259v7h4.54v1.18Z"></path><path d="M267.82,120.08V104.45h-3.18v-1.22h7.84v1.22H269.4v15.63Z"></path><path d="M221.71,275v-18h6a5.16,5.16,0,0,1,2.66.62,3.64,3.64,0,0,1,1.55,1.77,7,7,0,0,1,.51,2.82,6.11,6.11,0,0,1-.68,3.18,3.59,3.59,0,0,1-1.86,1.52,7.86,7.86,0,0,1-2.64.42h-1.6V275Zm4-10.4H227a2,2,0,0,0,1.11-.26,1.31,1.31,0,0,0,.5-.8,6.36,6.36,0,0,0,.12-1.35,6.22,6.22,0,0,0-.1-1.21,1.32,1.32,0,0,0-.48-.83,1.8,1.8,0,0,0-1.17-.31h-1.31Z" style="fill:#263238"></path><path d="M232.45,275l3.39-18h4.52l3.35,18h-3.66l-.59-3.79h-2.64L236.2,275Zm4.72-6.17h1.91l-1-7Z" style="fill:#263238"></path><path d="M246.9,275V267.7l-3.41-10.62h3.74l1.71,5.68,1.53-5.68h3.59l-3.35,10.62V275Z" style="fill:#263238"></path></g><g id="freepik--Coins--inject-45"><circle cx="76.94" cy="433.67" r="49.68" transform="translate(-284.12 181.43) rotate(-45)" style="fill:#fff;stroke:#263238;stroke-miterlimit:10"></circle><circle cx="76.94" cy="433.67" r="41.72" transform="translate(-96.79 28.94) rotate(-13.17)" style="fill:#fff;stroke:#263238;stroke-miterlimit:10"></circle><path d="M85.51,471.64,84.1,465q-7.42,1.29-12-2.37t-6.73-12.38l9.7-3.85a30.35,30.35,0,0,0,2,5.8,7.56,7.56,0,0,0,2.58,3.18,4.38,4.38,0,0,0,3.4.51,3.27,3.27,0,0,0,2.73-2.07,6.7,6.7,0,0,0,.12-3.46,10.83,10.83,0,0,0-3-5.75,26.34,26.34,0,0,0-5.66-4l-7.18-3.93a40.8,40.8,0,0,1-4.55-3.13,16.33,16.33,0,0,1-3.58-4,17.68,17.68,0,0,1-2.26-5.87Q58.28,417,61.3,412.4A16.17,16.17,0,0,1,70.64,406l-1.35-6.36,3.43-.73,1.35,6.36a13.51,13.51,0,0,1,6.7.4,10.92,10.92,0,0,1,4.57,3.06,18.6,18.6,0,0,1,2.93,4.68,36.58,36.58,0,0,1,1.85,5.17l-9.9,3.67a32.65,32.65,0,0,0-1.42-4.59,7.07,7.07,0,0,0-2-2.9,3.38,3.38,0,0,0-3.09-.47,3.73,3.73,0,0,0-2.7,2.22,5.92,5.92,0,0,0-.32,3.58,8.53,8.53,0,0,0,2.7,4.95,34.64,34.64,0,0,0,4.39,3.1l7,3.88a41.51,41.51,0,0,1,5.35,3.71,22.4,22.4,0,0,1,4.39,4.86,19.06,19.06,0,0,1,2.69,6.7,15.69,15.69,0,0,1-.07,7.22,13,13,0,0,1-3.35,6,14.79,14.79,0,0,1-6.34,3.73l1.43,6.72Z" style="fill:#263238"></path><circle cx="351.94" cy="433.67" r="49.68" transform="translate(-189.78 569.6) rotate(-65.03)" style="fill:#fff;stroke:#263238;stroke-miterlimit:10"></circle><circle cx="351.94" cy="433.67" r="41.72" transform="translate(-92.86 95.9) rotate(-13.73)" style="fill:#fff;stroke:#263238;stroke-miterlimit:10"></circle><path d="M360.51,471.64,359.09,465q-7.41,1.29-12-2.37t-6.74-12.38l9.71-3.85a29.68,29.68,0,0,0,2,5.8,7.49,7.49,0,0,0,2.58,3.18,4.35,4.35,0,0,0,3.39.51,3.24,3.24,0,0,0,2.73-2.07,6.6,6.6,0,0,0,.13-3.46,10.9,10.9,0,0,0-3-5.75,26.6,26.6,0,0,0-5.66-4l-7.19-3.93a40.65,40.65,0,0,1-4.54-3.13,16.13,16.13,0,0,1-3.58-4,17.68,17.68,0,0,1-2.26-5.87q-1.43-6.71,1.59-11.27a16.2,16.2,0,0,1,9.35-6.43l-1.35-6.36,3.43-.73,1.35,6.36a13.48,13.48,0,0,1,6.69.4,10.86,10.86,0,0,1,4.57,3.06,18.36,18.36,0,0,1,2.94,4.68,36.5,36.5,0,0,1,1.84,5.17l-9.89,3.67a34,34,0,0,0-1.42-4.59,7.08,7.08,0,0,0-2-2.9,3.36,3.36,0,0,0-3.08-.47,3.73,3.73,0,0,0-2.7,2.22,5.84,5.84,0,0,0-.32,3.58,8.47,8.47,0,0,0,2.69,4.95,35.37,35.37,0,0,0,4.39,3.1l7,3.88a40.83,40.83,0,0,1,5.35,3.71,22.15,22.15,0,0,1,4.39,4.86,19.07,19.07,0,0,1,2.7,6.7,15.83,15.83,0,0,1-.07,7.22,13.06,13.06,0,0,1-3.36,6,14.76,14.76,0,0,1-6.33,3.73l1.42,6.72Z" style="fill:#263238"></path><line x1="477.48" y1="362.81" x2="477.48" y2="360.08" style="fill:none;stroke:#263238;stroke-miterlimit:10"></line><rect x="396.34" y="356.93" width="83.52" height="6.1" style="fill:#fff;stroke:#263238;stroke-miterlimit:10"></rect><line x1="400.03" y1="363.57" x2="400.03" y2="359.78" style="fill:none;stroke:#263238;stroke-miterlimit:10"></line><line x1="402.61" y1="357.2" x2="402.61" y2="360.99" style="fill:none;stroke:#263238;stroke-miterlimit:10"></line><line x1="474.45" y1="357.51" x2="474.45" y2="361.14" style="fill:none;stroke:#263238;stroke-miterlimit:10"></line><line x1="470.51" y1="357.51" x2="470.51" y2="360.99" style="fill:none;stroke:#263238;stroke-miterlimit:10"></line><line x1="460.81" y1="357.35" x2="460.81" y2="361.75" style="fill:none;stroke:#263238;stroke-miterlimit:10"></line><line x1="408.82" y1="357.81" x2="408.82" y2="359.78" style="fill:none;stroke:#263238;stroke-miterlimit:10"></line><line x1="410.34" y1="362.35" x2="410.34" y2="358.87" style="fill:none;stroke:#263238;stroke-miterlimit:10"></line><line x1="421.1" y1="357.35" x2="421.1" y2="361.75" style="fill:none;stroke:#263238;stroke-miterlimit:10"></line><line x1="440.04" y1="357.81" x2="440.04" y2="360.84" style="fill:none;stroke:#263238;stroke-miterlimit:10"></line><line x1="483.52" y1="368.81" x2="483.52" y2="366.08" style="fill:none;stroke:#263238;stroke-miterlimit:10"></line><rect x="402.38" y="362.93" width="83.52" height="6.1" style="fill:#fff;stroke:#263238;stroke-miterlimit:10"></rect><line x1="406.07" y1="369.56" x2="406.07" y2="365.77" style="fill:none;stroke:#263238;stroke-miterlimit:10"></line><line x1="408.65" y1="363.2" x2="408.65" y2="366.99" style="fill:none;stroke:#263238;stroke-miterlimit:10"></line><line x1="480.48" y1="363.5" x2="480.48" y2="367.14" style="fill:none;stroke:#263238;stroke-miterlimit:10"></line><line x1="476.54" y1="363.5" x2="476.54" y2="366.99" style="fill:none;stroke:#263238;stroke-miterlimit:10"></line><line x1="466.84" y1="363.35" x2="466.84" y2="367.75" style="fill:none;stroke:#263238;stroke-miterlimit:10"></line><line x1="414.86" y1="363.8" x2="414.86" y2="365.77" style="fill:none;stroke:#263238;stroke-miterlimit:10"></line><line x1="416.38" y1="368.35" x2="416.38" y2="364.87" style="fill:none;stroke:#263238;stroke-miterlimit:10"></line><line x1="427.14" y1="363.35" x2="427.14" y2="367.75" style="fill:none;stroke:#263238;stroke-miterlimit:10"></line><line x1="446.08" y1="363.8" x2="446.08" y2="366.84" style="fill:none;stroke:#263238;stroke-miterlimit:10"></line><line x1="481.4" y1="374.8" x2="481.4" y2="372.07" style="fill:none;stroke:#263238;stroke-miterlimit:10"></line><rect x="400.26" y="368.92" width="83.52" height="6.1" style="fill:#fff;stroke:#263238;stroke-miterlimit:10"></rect><line x1="403.95" y1="375.56" x2="403.95" y2="371.77" style="fill:none;stroke:#263238;stroke-miterlimit:10"></line><line x1="406.53" y1="369.2" x2="406.53" y2="372.98" style="fill:none;stroke:#263238;stroke-miterlimit:10"></line><line x1="478.37" y1="369.5" x2="478.37" y2="373.14" style="fill:none;stroke:#263238;stroke-miterlimit:10"></line><line x1="474.42" y1="369.5" x2="474.42" y2="372.98" style="fill:none;stroke:#263238;stroke-miterlimit:10"></line><line x1="464.73" y1="369.35" x2="464.73" y2="373.74" style="fill:none;stroke:#263238;stroke-miterlimit:10"></line><line x1="412.74" y1="369.8" x2="412.74" y2="371.77" style="fill:none;stroke:#263238;stroke-miterlimit:10"></line><line x1="414.26" y1="374.35" x2="414.26" y2="370.86" style="fill:none;stroke:#263238;stroke-miterlimit:10"></line><line x1="425.02" y1="369.35" x2="425.02" y2="373.74" style="fill:none;stroke:#263238;stroke-miterlimit:10"></line><line x1="443.96" y1="369.8" x2="443.96" y2="372.83" style="fill:none;stroke:#263238;stroke-miterlimit:10"></line><line x1="483.52" y1="380.8" x2="483.52" y2="378.07" style="fill:none;stroke:#263238;stroke-miterlimit:10"></line><rect x="402.39" y="374.92" width="83.52" height="6.1" style="fill:#fff;stroke:#263238;stroke-miterlimit:10"></rect><line x1="406.08" y1="381.56" x2="406.08" y2="377.77" style="fill:none;stroke:#263238;stroke-miterlimit:10"></line><line x1="408.66" y1="375.19" x2="408.66" y2="378.98" style="fill:none;stroke:#263238;stroke-miterlimit:10"></line><line x1="480.49" y1="375.5" x2="480.49" y2="379.13" style="fill:none;stroke:#263238;stroke-miterlimit:10"></line><line x1="476.55" y1="375.5" x2="476.55" y2="378.98" style="fill:none;stroke:#263238;stroke-miterlimit:10"></line><line x1="466.85" y1="375.34" x2="466.85" y2="379.74" style="fill:none;stroke:#263238;stroke-miterlimit:10"></line><line x1="414.87" y1="375.8" x2="414.87" y2="377.77" style="fill:none;stroke:#263238;stroke-miterlimit:10"></line><line x1="416.39" y1="380.34" x2="416.39" y2="376.86" style="fill:none;stroke:#263238;stroke-miterlimit:10"></line><line x1="427.15" y1="375.34" x2="427.15" y2="379.74" style="fill:none;stroke:#263238;stroke-miterlimit:10"></line><line x1="446.09" y1="375.8" x2="446.09" y2="378.83" style="fill:none;stroke:#263238;stroke-miterlimit:10"></line><line x1="477.48" y1="386.8" x2="477.48" y2="384.07" style="fill:none;stroke:#263238;stroke-miterlimit:10"></line><rect x="396.34" y="380.92" width="83.52" height="6.1" style="fill:#fff;stroke:#263238;stroke-miterlimit:10"></rect><line x1="400.03" y1="387.55" x2="400.03" y2="383.76" style="fill:none;stroke:#263238;stroke-miterlimit:10"></line><line x1="402.61" y1="381.19" x2="402.61" y2="384.98" style="fill:none;stroke:#263238;stroke-miterlimit:10"></line><line x1="474.45" y1="381.49" x2="474.45" y2="385.13" style="fill:none;stroke:#263238;stroke-miterlimit:10"></line><line x1="470.51" y1="381.49" x2="470.51" y2="384.98" style="fill:none;stroke:#263238;stroke-miterlimit:10"></line><line x1="460.81" y1="381.34" x2="460.81" y2="385.74" style="fill:none;stroke:#263238;stroke-miterlimit:10"></line><line x1="408.82" y1="381.79" x2="408.82" y2="383.76" style="fill:none;stroke:#263238;stroke-miterlimit:10"></line><line x1="410.34" y1="386.34" x2="410.34" y2="382.86" style="fill:none;stroke:#263238;stroke-miterlimit:10"></line><line x1="421.1" y1="381.34" x2="421.1" y2="385.74" style="fill:none;stroke:#263238;stroke-miterlimit:10"></line><line x1="440.04" y1="381.79" x2="440.04" y2="384.83" style="fill:none;stroke:#263238;stroke-miterlimit:10"></line><line x1="477.48" y1="392.79" x2="477.48" y2="390.06" style="fill:none;stroke:#263238;stroke-miterlimit:10"></line><rect x="396.34" y="386.91" width="83.52" height="6.1" style="fill:#fff;stroke:#263238;stroke-miterlimit:10"></rect><line x1="400.03" y1="393.55" x2="400.03" y2="389.76" style="fill:none;stroke:#263238;stroke-miterlimit:10"></line><line x1="402.61" y1="387.18" x2="402.61" y2="390.97" style="fill:none;stroke:#263238;stroke-miterlimit:10"></line><line x1="474.45" y1="387.49" x2="474.45" y2="391.13" style="fill:none;stroke:#263238;stroke-miterlimit:10"></line><line x1="470.51" y1="387.49" x2="470.51" y2="390.97" style="fill:none;stroke:#263238;stroke-miterlimit:10"></line><line x1="460.81" y1="387.34" x2="460.81" y2="391.73" style="fill:none;stroke:#263238;stroke-miterlimit:10"></line><line x1="408.82" y1="387.79" x2="408.82" y2="389.76" style="fill:none;stroke:#263238;stroke-miterlimit:10"></line><line x1="410.34" y1="392.34" x2="410.34" y2="388.85" style="fill:none;stroke:#263238;stroke-miterlimit:10"></line><line x1="421.1" y1="387.34" x2="421.1" y2="391.73" style="fill:none;stroke:#263238;stroke-miterlimit:10"></line><line x1="440.04" y1="387.79" x2="440.04" y2="390.82" style="fill:none;stroke:#263238;stroke-miterlimit:10"></line><line x1="477.48" y1="398.79" x2="477.48" y2="396.06" style="fill:none;stroke:#263238;stroke-miterlimit:10"></line><rect x="396.34" y="392.91" width="83.52" height="6.1" style="fill:#fff;stroke:#263238;stroke-miterlimit:10"></rect><line x1="400.03" y1="399.55" x2="400.03" y2="395.76" style="fill:none;stroke:#263238;stroke-miterlimit:10"></line><line x1="402.61" y1="393.18" x2="402.61" y2="396.97" style="fill:none;stroke:#263238;stroke-miterlimit:10"></line><line x1="474.45" y1="393.48" x2="474.45" y2="397.12" style="fill:none;stroke:#263238;stroke-miterlimit:10"></line><line x1="470.51" y1="393.48" x2="470.51" y2="396.97" style="fill:none;stroke:#263238;stroke-miterlimit:10"></line><line x1="460.81" y1="393.33" x2="460.81" y2="397.73" style="fill:none;stroke:#263238;stroke-miterlimit:10"></line><line x1="408.82" y1="393.79" x2="408.82" y2="395.76" style="fill:none;stroke:#263238;stroke-miterlimit:10"></line><line x1="410.34" y1="398.33" x2="410.34" y2="394.85" style="fill:none;stroke:#263238;stroke-miterlimit:10"></line><line x1="421.1" y1="393.33" x2="421.1" y2="397.73" style="fill:none;stroke:#263238;stroke-miterlimit:10"></line><line x1="440.04" y1="393.79" x2="440.04" y2="396.82" style="fill:none;stroke:#263238;stroke-miterlimit:10"></line><line x1="484.01" y1="404.79" x2="484.01" y2="402.06" style="fill:none;stroke:#263238;stroke-miterlimit:10"></line><rect x="402.87" y="398.91" width="83.52" height="6.1" style="fill:#fff;stroke:#263238;stroke-miterlimit:10"></rect><line x1="406.57" y1="405.54" x2="406.57" y2="401.75" style="fill:none;stroke:#263238;stroke-miterlimit:10"></line><line x1="409.14" y1="399.18" x2="409.14" y2="402.97" style="fill:none;stroke:#263238;stroke-miterlimit:10"></line><line x1="480.98" y1="399.48" x2="480.98" y2="403.12" style="fill:none;stroke:#263238;stroke-miterlimit:10"></line><line x1="477.04" y1="399.48" x2="477.04" y2="402.97" style="fill:none;stroke:#263238;stroke-miterlimit:10"></line><line x1="467.34" y1="399.33" x2="467.34" y2="403.72" style="fill:none;stroke:#263238;stroke-miterlimit:10"></line><line x1="415.36" y1="399.78" x2="415.36" y2="401.75" style="fill:none;stroke:#263238;stroke-miterlimit:10"></line><line x1="416.87" y1="404.33" x2="416.87" y2="400.85" style="fill:none;stroke:#263238;stroke-miterlimit:10"></line><line x1="427.63" y1="399.33" x2="427.63" y2="403.72" style="fill:none;stroke:#263238;stroke-miterlimit:10"></line><line x1="446.58" y1="399.78" x2="446.58" y2="402.82" style="fill:none;stroke:#263238;stroke-miterlimit:10"></line><line x1="486.29" y1="410.78" x2="486.29" y2="408.05" style="fill:none;stroke:#263238;stroke-miterlimit:10"></line><rect x="405.16" y="404.9" width="83.52" height="6.1" style="fill:#fff;stroke:#263238;stroke-miterlimit:10"></rect><line x1="408.85" y1="411.54" x2="408.85" y2="407.75" style="fill:none;stroke:#263238;stroke-miterlimit:10"></line><line x1="411.43" y1="405.17" x2="411.43" y2="408.96" style="fill:none;stroke:#263238;stroke-miterlimit:10"></line><line x1="483.26" y1="405.48" x2="483.26" y2="409.12" style="fill:none;stroke:#263238;stroke-miterlimit:10"></line><line x1="479.32" y1="405.48" x2="479.32" y2="408.96" style="fill:none;stroke:#263238;stroke-miterlimit:10"></line><line x1="469.62" y1="405.33" x2="469.62" y2="409.72" style="fill:none;stroke:#263238;stroke-miterlimit:10"></line><line x1="417.64" y1="405.78" x2="417.64" y2="407.75" style="fill:none;stroke:#263238;stroke-miterlimit:10"></line><line x1="419.16" y1="410.33" x2="419.16" y2="406.84" style="fill:none;stroke:#263238;stroke-miterlimit:10"></line><line x1="429.92" y1="405.33" x2="429.92" y2="409.72" style="fill:none;stroke:#263238;stroke-miterlimit:10"></line><line x1="448.86" y1="405.78" x2="448.86" y2="408.81" style="fill:none;stroke:#263238;stroke-miterlimit:10"></line><line x1="483.53" y1="416.78" x2="483.53" y2="414.05" style="fill:none;stroke:#263238;stroke-miterlimit:10"></line><rect x="402.39" y="410.9" width="83.52" height="6.1" style="fill:#fff;stroke:#263238;stroke-miterlimit:10"></rect><line x1="406.09" y1="417.54" x2="406.09" y2="413.75" style="fill:none;stroke:#263238;stroke-miterlimit:10"></line><line x1="408.66" y1="411.17" x2="408.66" y2="414.96" style="fill:none;stroke:#263238;stroke-miterlimit:10"></line><line x1="480.5" y1="411.47" x2="480.5" y2="415.11" style="fill:none;stroke:#263238;stroke-miterlimit:10"></line><line x1="476.56" y1="411.47" x2="476.56" y2="414.96" style="fill:none;stroke:#263238;stroke-miterlimit:10"></line><line x1="466.86" y1="411.32" x2="466.86" y2="415.72" style="fill:none;stroke:#263238;stroke-miterlimit:10"></line><line x1="414.88" y1="411.78" x2="414.88" y2="413.75" style="fill:none;stroke:#263238;stroke-miterlimit:10"></line><line x1="416.39" y1="416.32" x2="416.39" y2="412.84" style="fill:none;stroke:#263238;stroke-miterlimit:10"></line><line x1="427.15" y1="411.32" x2="427.15" y2="415.72" style="fill:none;stroke:#263238;stroke-miterlimit:10"></line><line x1="446.1" y1="411.78" x2="446.1" y2="414.81" style="fill:none;stroke:#263238;stroke-miterlimit:10"></line><line x1="477.48" y1="422.78" x2="477.48" y2="420.05" style="fill:none;stroke:#263238;stroke-miterlimit:10"></line><rect x="396.34" y="416.9" width="83.52" height="6.1" style="fill:#fff;stroke:#263238;stroke-miterlimit:10"></rect><line x1="400.03" y1="423.53" x2="400.03" y2="419.74" style="fill:none;stroke:#263238;stroke-miterlimit:10"></line><line x1="402.61" y1="417.17" x2="402.61" y2="420.96" style="fill:none;stroke:#263238;stroke-miterlimit:10"></line><line x1="474.45" y1="417.47" x2="474.45" y2="421.11" style="fill:none;stroke:#263238;stroke-miterlimit:10"></line><line x1="470.51" y1="417.47" x2="470.51" y2="420.96" style="fill:none;stroke:#263238;stroke-miterlimit:10"></line><line x1="460.81" y1="417.32" x2="460.81" y2="421.71" style="fill:none;stroke:#263238;stroke-miterlimit:10"></line><line x1="408.82" y1="417.77" x2="408.82" y2="419.74" style="fill:none;stroke:#263238;stroke-miterlimit:10"></line><line x1="410.34" y1="422.32" x2="410.34" y2="418.84" style="fill:none;stroke:#263238;stroke-miterlimit:10"></line><line x1="421.1" y1="417.32" x2="421.1" y2="421.71" style="fill:none;stroke:#263238;stroke-miterlimit:10"></line><line x1="440.04" y1="417.77" x2="440.04" y2="420.81" style="fill:none;stroke:#263238;stroke-miterlimit:10"></line><line x1="475.46" y1="428.77" x2="475.46" y2="426.04" style="fill:none;stroke:#263238;stroke-miterlimit:10"></line><rect x="394.32" y="422.89" width="83.52" height="6.1" style="fill:#fff;stroke:#263238;stroke-miterlimit:10"></rect><line x1="398.02" y1="429.53" x2="398.02" y2="425.74" style="fill:none;stroke:#263238;stroke-miterlimit:10"></line><line x1="400.59" y1="423.16" x2="400.59" y2="426.95" style="fill:none;stroke:#263238;stroke-miterlimit:10"></line><line x1="472.43" y1="423.47" x2="472.43" y2="427.1" style="fill:none;stroke:#263238;stroke-miterlimit:10"></line><line x1="468.49" y1="423.47" x2="468.49" y2="426.95" style="fill:none;stroke:#263238;stroke-miterlimit:10"></line><line x1="458.79" y1="423.32" x2="458.79" y2="427.71" style="fill:none;stroke:#263238;stroke-miterlimit:10"></line><line x1="406.81" y1="423.77" x2="406.81" y2="425.74" style="fill:none;stroke:#263238;stroke-miterlimit:10"></line><line x1="408.32" y1="428.32" x2="408.32" y2="424.83" style="fill:none;stroke:#263238;stroke-miterlimit:10"></line><line x1="419.08" y1="423.32" x2="419.08" y2="427.71" style="fill:none;stroke:#263238;stroke-miterlimit:10"></line><line x1="438.03" y1="423.77" x2="438.03" y2="426.8" style="fill:none;stroke:#263238;stroke-miterlimit:10"></line><line x1="475.06" y1="434.77" x2="475.06" y2="432.04" style="fill:none;stroke:#263238;stroke-miterlimit:10"></line><rect x="393.92" y="428.89" width="83.52" height="6.1" style="fill:#fff;stroke:#263238;stroke-miterlimit:10"></rect><line x1="397.61" y1="435.53" x2="397.61" y2="431.74" style="fill:none;stroke:#263238;stroke-miterlimit:10"></line><line x1="400.19" y1="429.16" x2="400.19" y2="432.95" style="fill:none;stroke:#263238;stroke-miterlimit:10"></line><line x1="472.03" y1="429.46" x2="472.03" y2="433.1" style="fill:none;stroke:#263238;stroke-miterlimit:10"></line><line x1="468.09" y1="429.46" x2="468.09" y2="432.95" style="fill:none;stroke:#263238;stroke-miterlimit:10"></line><line x1="458.39" y1="429.31" x2="458.39" y2="433.71" style="fill:none;stroke:#263238;stroke-miterlimit:10"></line><line x1="406.4" y1="429.77" x2="406.4" y2="431.74" style="fill:none;stroke:#263238;stroke-miterlimit:10"></line><line x1="407.92" y1="434.31" x2="407.92" y2="430.83" style="fill:none;stroke:#263238;stroke-miterlimit:10"></line><line x1="418.68" y1="429.31" x2="418.68" y2="433.71" style="fill:none;stroke:#263238;stroke-miterlimit:10"></line><line x1="437.62" y1="429.77" x2="437.62" y2="432.8" style="fill:none;stroke:#263238;stroke-miterlimit:10"></line><line x1="475.26" y1="440.77" x2="475.26" y2="438.04" style="fill:none;stroke:#263238;stroke-miterlimit:10"></line><rect x="394.12" y="434.89" width="83.52" height="6.1" style="fill:#fff;stroke:#263238;stroke-miterlimit:10"></rect><line x1="397.82" y1="441.52" x2="397.82" y2="437.73" style="fill:none;stroke:#263238;stroke-miterlimit:10"></line><line x1="400.39" y1="435.16" x2="400.39" y2="438.95" style="fill:none;stroke:#263238;stroke-miterlimit:10"></line><line x1="472.23" y1="435.46" x2="472.23" y2="439.1" style="fill:none;stroke:#263238;stroke-miterlimit:10"></line><line x1="468.29" y1="435.46" x2="468.29" y2="438.95" style="fill:none;stroke:#263238;stroke-miterlimit:10"></line><line x1="458.59" y1="435.31" x2="458.59" y2="439.7" style="fill:none;stroke:#263238;stroke-miterlimit:10"></line><line x1="406.61" y1="435.76" x2="406.61" y2="437.73" style="fill:none;stroke:#263238;stroke-miterlimit:10"></line><line x1="408.12" y1="440.31" x2="408.12" y2="436.82" style="fill:none;stroke:#263238;stroke-miterlimit:10"></line><line x1="418.88" y1="435.31" x2="418.88" y2="439.7" style="fill:none;stroke:#263238;stroke-miterlimit:10"></line><line x1="437.83" y1="435.76" x2="437.83" y2="438.8" style="fill:none;stroke:#263238;stroke-miterlimit:10"></line><line x1="474.05" y1="446.76" x2="474.05" y2="444.03" style="fill:none;stroke:#263238;stroke-miterlimit:10"></line><rect x="392.91" y="440.88" width="83.52" height="6.1" style="fill:#fff;stroke:#263238;stroke-miterlimit:10"></rect><line x1="396.61" y1="447.52" x2="396.61" y2="443.73" style="fill:none;stroke:#263238;stroke-miterlimit:10"></line><line x1="399.18" y1="441.15" x2="399.18" y2="444.94" style="fill:none;stroke:#263238;stroke-miterlimit:10"></line><line x1="471.02" y1="441.46" x2="471.02" y2="445.09" style="fill:none;stroke:#263238;stroke-miterlimit:10"></line><line x1="467.08" y1="441.46" x2="467.08" y2="444.94" style="fill:none;stroke:#263238;stroke-miterlimit:10"></line><line x1="457.38" y1="441.31" x2="457.38" y2="445.7" style="fill:none;stroke:#263238;stroke-miterlimit:10"></line><line x1="405.4" y1="441.76" x2="405.4" y2="443.73" style="fill:none;stroke:#263238;stroke-miterlimit:10"></line><line x1="406.91" y1="446.31" x2="406.91" y2="442.82" style="fill:none;stroke:#263238;stroke-miterlimit:10"></line><line x1="417.67" y1="441.31" x2="417.67" y2="445.7" style="fill:none;stroke:#263238;stroke-miterlimit:10"></line><line x1="436.62" y1="441.76" x2="436.62" y2="444.79" style="fill:none;stroke:#263238;stroke-miterlimit:10"></line><line x1="474.25" y1="452.76" x2="474.25" y2="450.03" style="fill:none;stroke:#263238;stroke-miterlimit:10"></line><rect x="393.11" y="446.88" width="83.52" height="6.1" style="fill:#fff;stroke:#263238;stroke-miterlimit:10"></rect><line x1="396.81" y1="453.52" x2="396.81" y2="449.73" style="fill:none;stroke:#263238;stroke-miterlimit:10"></line><line x1="399.38" y1="447.15" x2="399.38" y2="450.94" style="fill:none;stroke:#263238;stroke-miterlimit:10"></line><line x1="471.22" y1="447.45" x2="471.22" y2="451.09" style="fill:none;stroke:#263238;stroke-miterlimit:10"></line><line x1="467.28" y1="447.45" x2="467.28" y2="450.94" style="fill:none;stroke:#263238;stroke-miterlimit:10"></line><line x1="457.58" y1="447.3" x2="457.58" y2="451.7" style="fill:none;stroke:#263238;stroke-miterlimit:10"></line><line x1="405.6" y1="447.76" x2="405.6" y2="449.73" style="fill:none;stroke:#263238;stroke-miterlimit:10"></line><line x1="407.11" y1="452.3" x2="407.11" y2="448.82" style="fill:none;stroke:#263238;stroke-miterlimit:10"></line><line x1="417.87" y1="447.3" x2="417.87" y2="451.7" style="fill:none;stroke:#263238;stroke-miterlimit:10"></line><line x1="436.82" y1="447.76" x2="436.82" y2="450.79" style="fill:none;stroke:#263238;stroke-miterlimit:10"></line><line x1="475.06" y1="458.75" x2="475.06" y2="456.03" style="fill:none;stroke:#263238;stroke-miterlimit:10"></line><rect x="393.92" y="452.88" width="83.52" height="6.1" style="fill:#fff;stroke:#263238;stroke-miterlimit:10"></rect><line x1="397.61" y1="459.51" x2="397.61" y2="455.72" style="fill:none;stroke:#263238;stroke-miterlimit:10"></line><line x1="400.19" y1="453.15" x2="400.19" y2="456.94" style="fill:none;stroke:#263238;stroke-miterlimit:10"></line><line x1="472.03" y1="453.45" x2="472.03" y2="457.09" style="fill:none;stroke:#263238;stroke-miterlimit:10"></line><line x1="468.09" y1="453.45" x2="468.09" y2="456.94" style="fill:none;stroke:#263238;stroke-miterlimit:10"></line><line x1="458.39" y1="453.3" x2="458.39" y2="457.69" style="fill:none;stroke:#263238;stroke-miterlimit:10"></line><line x1="406.4" y1="453.75" x2="406.4" y2="455.72" style="fill:none;stroke:#263238;stroke-miterlimit:10"></line><line x1="407.92" y1="458.3" x2="407.92" y2="454.81" style="fill:none;stroke:#263238;stroke-miterlimit:10"></line><line x1="418.68" y1="453.3" x2="418.68" y2="457.69" style="fill:none;stroke:#263238;stroke-miterlimit:10"></line><line x1="437.62" y1="453.75" x2="437.62" y2="456.78" style="fill:none;stroke:#263238;stroke-miterlimit:10"></line><line x1="475.26" y1="464.75" x2="475.26" y2="462.02" style="fill:none;stroke:#263238;stroke-miterlimit:10"></line><rect x="394.12" y="458.87" width="83.52" height="6.1" style="fill:#fff;stroke:#263238;stroke-miterlimit:10"></rect><line x1="397.82" y1="465.51" x2="397.82" y2="461.72" style="fill:none;stroke:#263238;stroke-miterlimit:10"></line><line x1="400.39" y1="459.14" x2="400.39" y2="462.93" style="fill:none;stroke:#263238;stroke-miterlimit:10"></line><line x1="472.23" y1="459.45" x2="472.23" y2="463.08" style="fill:none;stroke:#263238;stroke-miterlimit:10"></line><line x1="468.29" y1="459.45" x2="468.29" y2="462.93" style="fill:none;stroke:#263238;stroke-miterlimit:10"></line><line x1="458.59" y1="459.3" x2="458.59" y2="463.69" style="fill:none;stroke:#263238;stroke-miterlimit:10"></line><line x1="406.61" y1="459.75" x2="406.61" y2="461.72" style="fill:none;stroke:#263238;stroke-miterlimit:10"></line><line x1="408.12" y1="464.3" x2="408.12" y2="460.81" style="fill:none;stroke:#263238;stroke-miterlimit:10"></line><line x1="418.88" y1="459.3" x2="418.88" y2="463.69" style="fill:none;stroke:#263238;stroke-miterlimit:10"></line><line x1="437.83" y1="459.75" x2="437.83" y2="462.78" style="fill:none;stroke:#263238;stroke-miterlimit:10"></line><line x1="477.48" y1="470.75" x2="477.48" y2="468.02" style="fill:none;stroke:#263238;stroke-miterlimit:10"></line><rect x="396.34" y="464.87" width="83.52" height="6.1" style="fill:#fff;stroke:#263238;stroke-miterlimit:10"></rect><line x1="400.03" y1="471.51" x2="400.03" y2="467.72" style="fill:none;stroke:#263238;stroke-miterlimit:10"></line><line x1="402.61" y1="465.14" x2="402.61" y2="468.93" style="fill:none;stroke:#263238;stroke-miterlimit:10"></line><line x1="474.45" y1="465.44" x2="474.45" y2="469.08" style="fill:none;stroke:#263238;stroke-miterlimit:10"></line><line x1="470.51" y1="465.44" x2="470.51" y2="468.93" style="fill:none;stroke:#263238;stroke-miterlimit:10"></line><line x1="460.81" y1="465.29" x2="460.81" y2="469.69" style="fill:none;stroke:#263238;stroke-miterlimit:10"></line><line x1="408.82" y1="465.75" x2="408.82" y2="467.72" style="fill:none;stroke:#263238;stroke-miterlimit:10"></line><line x1="410.34" y1="470.29" x2="410.34" y2="466.81" style="fill:none;stroke:#263238;stroke-miterlimit:10"></line><line x1="421.1" y1="465.29" x2="421.1" y2="469.69" style="fill:none;stroke:#263238;stroke-miterlimit:10"></line><line x1="440.04" y1="465.75" x2="440.04" y2="468.78" style="fill:none;stroke:#263238;stroke-miterlimit:10"></line><line x1="477.48" y1="476.74" x2="477.48" y2="474.02" style="fill:none;stroke:#263238;stroke-miterlimit:10"></line><rect x="396.34" y="470.86" width="83.52" height="6.09" style="fill:#fff;stroke:#263238;stroke-miterlimit:10"></rect><line x1="400.03" y1="477.5" x2="400.03" y2="473.71" style="fill:none;stroke:#263238;stroke-miterlimit:10"></line><line x1="402.61" y1="471.14" x2="402.61" y2="474.93" style="fill:none;stroke:#263238;stroke-miterlimit:10"></line><line x1="474.45" y1="471.44" x2="474.45" y2="475.08" style="fill:none;stroke:#263238;stroke-miterlimit:10"></line><line x1="470.51" y1="471.44" x2="470.51" y2="474.93" style="fill:none;stroke:#263238;stroke-miterlimit:10"></line><line x1="460.81" y1="471.29" x2="460.81" y2="475.68" style="fill:none;stroke:#263238;stroke-miterlimit:10"></line><line x1="408.82" y1="471.74" x2="408.82" y2="473.71" style="fill:none;stroke:#263238;stroke-miterlimit:10"></line><line x1="410.34" y1="476.29" x2="410.34" y2="472.8" style="fill:none;stroke:#263238;stroke-miterlimit:10"></line><line x1="421.1" y1="471.29" x2="421.1" y2="475.68" style="fill:none;stroke:#263238;stroke-miterlimit:10"></line><line x1="440.04" y1="471.74" x2="440.04" y2="474.77" style="fill:none;stroke:#263238;stroke-miterlimit:10"></line><line x1="477.48" y1="482.74" x2="477.48" y2="480.01" style="fill:none;stroke:#263238;stroke-miterlimit:10"></line><rect x="396.34" y="476.86" width="83.52" height="6.09" style="fill:#fff;stroke:#263238;stroke-miterlimit:10"></rect><line x1="400.03" y1="483.5" x2="400.03" y2="479.71" style="fill:none;stroke:#263238;stroke-miterlimit:10"></line><line x1="402.61" y1="477.13" x2="402.61" y2="480.92" style="fill:none;stroke:#263238;stroke-miterlimit:10"></line><line x1="474.45" y1="477.44" x2="474.45" y2="481.07" style="fill:none;stroke:#263238;stroke-miterlimit:10"></line><line x1="470.51" y1="477.44" x2="470.51" y2="480.92" style="fill:none;stroke:#263238;stroke-miterlimit:10"></line><line x1="460.81" y1="477.29" x2="460.81" y2="481.68" style="fill:none;stroke:#263238;stroke-miterlimit:10"></line><line x1="408.82" y1="477.74" x2="408.82" y2="479.71" style="fill:none;stroke:#263238;stroke-miterlimit:10"></line><line x1="410.34" y1="482.29" x2="410.34" y2="478.8" style="fill:none;stroke:#263238;stroke-miterlimit:10"></line><line x1="421.1" y1="477.29" x2="421.1" y2="481.68" style="fill:none;stroke:#263238;stroke-miterlimit:10"></line><line x1="440.04" y1="477.74" x2="440.04" y2="480.77" style="fill:none;stroke:#263238;stroke-miterlimit:10"></line></g><g id="freepik--Receipt--inject-45"><rect x="189.42" y="307.67" width="32.79" height="84.82" style="fill:#263238;stroke:#263238;stroke-linecap:round;stroke-linejoin:round"></rect><path d="M298.8,321.08v-1a12.42,12.42,0,0,0-12.42-12.42h-97v.12a12.4,12.4,0,0,1,10.81,12.3v21.6h.22v126.5a14.93,14.93,0,0,0,14.93,14.93h83.44v-162Z" style="fill:#dbdbdb;stroke:#263238;stroke-linecap:round;stroke-linejoin:round"></path><path d="M233.12,460.93v9.77a12.42,12.42,0,0,1-9.5,12.06v.36h42.85V460.93Z" style="fill:#263238;stroke:#263238;stroke-linecap:round;stroke-linejoin:round"></path><path d="M239.8,449.1v21.6A12.42,12.42,0,0,1,229,483v.11h86a12.42,12.42,0,0,0,12.42-12.42V449.1Z" style="fill:#dbdbdb;stroke:#263238;stroke-linecap:round;stroke-linejoin:round"></path><line x1="219.53" y1="324.56" x2="284.16" y2="324.56" style="fill:none;stroke:#263238;stroke-miterlimit:10"></line><line x1="219.53" y1="336.34" x2="284.16" y2="336.34" style="fill:none;stroke:#263238;stroke-miterlimit:10"></line><line x1="219.53" y1="346.34" x2="284.16" y2="346.34" style="fill:none;stroke:#263238;stroke-miterlimit:10"></line><line x1="219.53" y1="415.97" x2="284.16" y2="415.97" style="fill:none;stroke:#263238;stroke-miterlimit:10"></line><line x1="219.53" y1="433.12" x2="284.16" y2="433.12" style="fill:none;stroke:#263238;stroke-miterlimit:10"></line><line x1="219.53" y1="356.7" x2="258.1" y2="356.7" style="fill:none;stroke:#263238;stroke-miterlimit:10"></line><line x1="219.53" y1="365.98" x2="258.1" y2="365.98" style="fill:none;stroke:#263238;stroke-miterlimit:10"></line><line x1="219.53" y1="375.26" x2="258.1" y2="375.26" style="fill:none;stroke:#263238;stroke-miterlimit:10"></line><line x1="219.53" y1="384.55" x2="258.1" y2="384.55" style="fill:none;stroke:#263238;stroke-miterlimit:10"></line><line x1="219.53" y1="393.83" x2="258.1" y2="393.83" style="fill:none;stroke:#263238;stroke-miterlimit:10"></line><line x1="219.53" y1="403.12" x2="258.1" y2="403.12" style="fill:none;stroke:#263238;stroke-miterlimit:10"></line></g><g id="freepik--Character--inject-45"><path d="M128.67,468.39s4.44,6.11,6.38,6.94,5.55,1.39,6.66,3.89a10.74,10.74,0,0,1,1.12,3.89H115.34s-1.11-3.61,0-5.83a15.48,15.48,0,0,0,1.39-4.44Z" style="fill:#fff;stroke:#263238;stroke-linecap:round;stroke-linejoin:round"></path><path d="M114.87,480.33h27.29a9.3,9.3,0,0,1,.67,2.78H115.34A13.08,13.08,0,0,1,114.87,480.33Z" style="fill:#fff;stroke:#263238;stroke-linecap:round;stroke-linejoin:round"></path><path d="M99.24,474.5l-.55,8.88H85.36a10.5,10.5,0,0,1,.28-5c.83-2.5,1.67-4.72,1.67-4.72Z" style="fill:#fff;stroke:#263238;stroke-linecap:round;stroke-linejoin:round"></path><path d="M98.69,483.38H85.36a10.67,10.67,0,0,1-.09-3.33H98.9Z" style="fill:#fff;stroke:#263238;stroke-linecap:round;stroke-linejoin:round"></path><path d="M139.49,339s-2.22,28.87-2.77,39.14-8.05,90.23-8.05,90.23-10.83,6.67-12.22,6.67-3-96.34-3-96.34L99.24,474.5a17.67,17.67,0,0,1-4.72.83c-2.22,0-7.21-1.66-7.21-1.66L92,358.18V339s28,3.89,35.53,2.78A63.75,63.75,0,0,0,139.49,339Z" style="fill:#263238;stroke:#263238;stroke-linecap:round;stroke-linejoin:round"></path><polyline points="105.63 356.51 111.73 361.23 113.4 378.72" style="fill:none;stroke:gray;stroke-linecap:round;stroke-linejoin:round"></polyline><path d="M103.11,221.72s11.32-1.42,14.65,2.45,4,11.37,6.31,13.17,3.6-.44,4.63,1.9-.65,5.23-.65,5.23.28,11.27-1,11.81-7,.55-7,.55l.93,4.63-14.32.6-1.25-4.84s-10.89-6.32-13.83-11.11-2.24-15.4.7-19.11S103.11,221.72,103.11,221.72Z" style="fill:#fff;stroke:#263238;stroke-linecap:round;stroke-linejoin:round"></path><path d="M128.05,244.47s-6.64-2.09-7-1.1.79,13.63.79,13.63,4.69.54,5.21-.72S128.57,253.47,128.05,244.47Zm-1.4,10.61c-.38,1-3.74.58-3.74.58s-.85-10.18-.57-11,5,.89,5,.89C127.75,252.82,127,254.07,126.65,255.08Z" style="fill:#263238"></path><path d="M120.65,236.79c.35.85.91,1.42,1.25,1.28s.33-.94,0-1.79-.91-1.42-1.25-1.28S120.3,235.94,120.65,236.79Z" style="fill:#263238"></path><path d="M126.91,246.29a2.64,2.64,0,0,1-3.46-1" style="fill:none;stroke:#263238;stroke-linecap:round;stroke-linejoin:round"></path><path d="M120.53,232.85s-1.45-.79-1.62,1.62" style="fill:none;stroke:#263238;stroke-linecap:round;stroke-linejoin:round"></path><path d="M92.28,227c2.94-3.7,10.83-5.28,10.83-5.28s11.32-1.42,14.65,2.45c0,0-6.26-1.58-5.45,1.09s7.3,6.75,5.07,8.33-4.74.38-3.7,2.72,2.34,4.63,1.25,4.84-4.14-2.28-5.44-1.74-2.78,4.52-1.53,6.54a5.71,5.71,0,0,0,3.6,2.39s-2.23,5.83-4.19,7.35a4.32,4.32,0,0,1-3,.92c-2.77-1.69-10.43-6.6-12.82-10.5C88.64,241.32,89.34,230.71,92.28,227Z" style="fill:#263238;stroke:#263238;stroke-linecap:round;stroke-linejoin:round"></path><path d="M91.57,269.63s-8.07,5.28-10.24,9.31-7.45,41.88-8.07,45.92,8.85,32.43,8.85,32.43-.78,6.5,0,10,3.09,5.54,4.26,5.74,2.16-3.33,2.16-3.33c.78.78,1.76-.2,1.76-1.17s.59-8,.39-9-1.07-4.23-1.07-4.23l2-24.88Z" style="fill:#fff;stroke:#263238;stroke-linecap:round;stroke-linejoin:round"></path><path d="M74,321.34a30.09,30.09,0,0,0,10.27,2.2c5.14,0,6.6-.73,6.6-.73l.25-6.6s-11.74,0-13-.49-3.43-1.22-3.43-1.22Z" style="fill:#BA68C8;stroke:#263238;stroke-linecap:round;stroke-linejoin:round"></path><path d="M81.33,278.94c-1.67,3.09-5.15,26-7,38.41a44.27,44.27,0,0,0,17.21,2V269.63S83.5,274.91,81.33,278.94Z" style="fill:#BA68C8;stroke:#263238;stroke-linecap:round;stroke-linejoin:round"></path><line x1="86.58" y1="303.1" x2="79.57" y2="298.78" style="fill:#BA68C8;stroke:#263238;stroke-linecap:round;stroke-linejoin:round"></line><line x1="82.25" y1="305.58" x2="87.19" y2="304.96" style="fill:#BA68C8;stroke:#263238;stroke-linecap:round;stroke-linejoin:round"></line><path d="M88.13,360.33a5.3,5.3,0,0,1-1.37,2.55l-1,.78-.58,3.53s.39,2.15.58,3.32" style="fill:none;stroke:#263238;stroke-linecap:round;stroke-linejoin:round"></path><line x1="88.53" y1="369.73" x2="88.33" y2="364.64" style="fill:none;stroke:#263238;stroke-linecap:round;stroke-linejoin:round"></line><path d="M87.94,314.91c-.38-13.72-3.39-25.25-3.62-27.5-.26-2.65-.94-9.39,4.06-15.26A34.84,34.84,0,0,1,97,266c1.77-.53,3.13-.78,3.13-.78l-.89-.28a35.85,35.85,0,0,1,4.77-1.66c4.17-1.11,15.27-1.67,18.6,1.39,0,0,9.62,3,14.35,6.44a20.18,20.18,0,0,1,4.3,10.35c.5,5.51,1.48,32.15,1.84,42.21.08,2.28.26,4.53.54,6.79.63,5,1.44,22.16,1.44,22.16s-10.53,3.64-27.47,3.09-27.27-4.9-27.27-4.9l-2.49-1.32s0-16.27,0-19C87.88,325.16,88,315,87.94,314.91Z" style="fill:#BA68C8;stroke:#263238;stroke-linecap:round;stroke-linejoin:round"></path><path d="M118,304.31a23.23,23.23,0,0,0,2.63,3.84" style="fill:#BA68C8;stroke:#263238;stroke-linecap:round;stroke-linejoin:round"></path><path d="M110.26,282.56a106.33,106.33,0,0,0,6.34,19" style="fill:#BA68C8;stroke:#263238;stroke-linecap:round;stroke-linejoin:round"></path><path d="M110.89,294.44c.67,1.28,1.29,2.44,1.78,3.33" style="fill:#BA68C8;stroke:#263238;stroke-linecap:round;stroke-linejoin:round"></path><path d="M104.94,282.8s2.12,4.24,4.29,8.46" style="fill:#BA68C8;stroke:#263238;stroke-linecap:round;stroke-linejoin:round"></path><path d="M129.31,267.06s-4.06-5.81-4.89-6.36-17.67-2.34-21.28-1.23S97,266,97,266,114.87,264.83,129.31,267.06Z" style="fill:#fff;stroke:#263238;stroke-linecap:round;stroke-linejoin:round"></path><path d="M132.87,296.85,149,311.12s8.68,6.2,12.1,5c3-1.1,29.86-24.81,36.1-30.34v0l2.43-1.38s3.47,0,4.48-.64,2.52-1.85,2.52-1.85h.84c.84,0,1.35-1.18,1.69-2.36s1.34-4.54,1-5.38-4.72-3.71-4.72-3.71,1.18-1.68,1.69-2.35,2.18-2.53,2-4.21-2-2.53-3.54-.67-9.09,7.57-10.1,9.59c-.71,1.41-1.74,3.69-2.31,4.93l-30.56,16.93s-17.69-20.78-19.55-22-15.68-5.4-15.68-5.4" style="fill:#fff;stroke:#263238;stroke-linecap:round;stroke-linejoin:round"></path><path d="M132.87,296.85,149,311.12s8.68,6.2,12.1,5c1.2-.44,6.23-4.5,12.22-9.57a24.57,24.57,0,0,0-1.57-8,15.88,15.88,0,0,0-4.17-6.57l-4.93,2.73s-17.69-20.78-19.55-22-15.68-5.4-15.68-5.4" style="fill:#BA68C8;stroke:#263238;stroke-linecap:round;stroke-linejoin:round"></path><path d="M164.58,292.6s.92-1.24,3.58,2.07,4,11.06,4,12.16,1.77.66,2.87-.66,4.64-1.77,5.09-5.31-1.11-8.4-3.1-11.49-1.77-3.1-3.76-2.66S165.21,291,164.58,292.6Z" style="fill:#BA68C8;stroke:#263238;stroke-linecap:round;stroke-linejoin:round"></path><path d="M162.66,294.67s2.05,2.87,1.23,8.43" style="fill:#BA68C8;stroke:#263238;stroke-linecap:round;stroke-linejoin:round"></path><path d="M166,300.22s.82,2.06-.83,6.6" style="fill:#BA68C8;stroke:#263238;stroke-linecap:round;stroke-linejoin:round"></path><path d="M206,281.68a8.24,8.24,0,0,0,.67-3.2" style="fill:#fff;stroke:#263238;stroke-linecap:round;stroke-linejoin:round"></path></g><g id="freepik--Floor--inject-45"><line x1="20.79" y1="483.38" x2="482.63" y2="483.38" style="fill:none;stroke:#263238;stroke-miterlimit:10"></line></g></svg>
