<svg xmlns="http://www.w3.org/2000/svg" viewBox="0 0 500 500"><g id="freepik--Water--inject-20"><rect x="416.78" y="398.49" width="33.12" height="0.25" style="fill:#ebebeb"></rect><rect x="374.01" y="412.99" width="33.12" height="0.25" style="fill:#ebebeb"></rect><rect x="322.53" y="401.21" width="8.69" height="0.25" style="fill:#ebebeb"></rect><rect x="312.45" y="418.79" width="8.69" height="0.25" style="fill:#ebebeb"></rect><rect x="396.59" y="389.21" width="19.19" height="0.25" style="fill:#ebebeb"></rect><rect x="298.17" y="414.53" width="19.19" height="0.25" style="fill:#ebebeb"></rect><rect x="52.46" y="390.89" width="43.19" height="0.25" style="fill:#ebebeb"></rect><rect x="64.6" y="406.22" width="43.19" height="0.25" style="fill:#ebebeb"></rect><rect x="104.56" y="390.89" width="6.33" height="0.25" style="fill:#ebebeb"></rect><rect x="104.45" y="410.34" width="6.33" height="0.25" style="fill:#ebebeb"></rect><rect x="131.47" y="395.11" width="93.68" height="0.25" style="fill:#ebebeb"></rect><rect x="172.12" y="398.62" width="93.68" height="0.25" style="fill:#ebebeb"></rect></g><g id="freepik--Sun--inject-20"><circle cx="296.24" cy="201.41" r="23.72" transform="translate(32.15 443.45) rotate(-76.72)" style="fill:#407BFF"></circle><circle cx="296.24" cy="201.41" r="23.72" transform="translate(32.15 443.45) rotate(-76.72)" style="fill:#fff;opacity:0.9500000000000001"></circle></g><g id="freepik--electric-line--inject-20"><rect x="43.13" y="273.24" width="414.06" height="0.75" style="fill:#407BFF"></rect><rect x="149.06" y="272.39" width="2" height="25.46" style="fill:#263238"></rect><rect x="349.28" y="272.39" width="2" height="26.01" style="fill:#263238"></rect><rect x="239.29" y="261.6" width="6.12" height="38.15" style="fill:#263238"></rect><rect x="242.2" y="272.61" width="8.05" height="2" style="fill:#263238"></rect></g><g id="freepik--Train--inject-20"><path d="M70.73,283l-21.92,8.25c-2.53,1-2.51,5,0,5.93a25.26,25.26,0,0,0,8.89,1.43H163V280.45H84.42A38.84,38.84,0,0,0,70.73,283Z" style="fill:#407BFF"></path><path d="M163,280.45v18.12H57.72a25.26,25.26,0,0,1-8.89-1.43c-2.53-.95-2.55-5,0-5.93l1.67-.63,10.2-3.84.54-.2,9.28-3.49s0,0,.08,0l.15-.06a38.79,38.79,0,0,1,12-2.47c.56,0,1.13,0,1.7,0Z" style="fill:#fff;opacity:0.5"></path><path d="M163,280.49V283H70.58l.15-.06a38.79,38.79,0,0,1,12-2.47Z" style="fill:#fff;opacity:0.30000000000000004"></path><path d="M82.72,280.49l-1,1.34s-7.36,8.73-15.68,8.75c-7.12,0-13.76,0-15.53,0H50s5.14-1.82,10.66-3.84l.54-.2c3.35-1.22,6.8-2.51,9.28-3.49a1.09,1.09,0,0,1,.23-.09A38.79,38.79,0,0,1,82.72,280.49Z" style="fill:#fff;opacity:0.30000000000000004"></path><path d="M163,294.43v4.14H57.72a25.22,25.22,0,0,1-8.89-1.43,3,3,0,0,1-1.9-2.71Z" style="fill:#407BFF"></path><path d="M59.84,287.31,71.54,283H78.6a1.66,1.66,0,0,1,1.3,2.68h0a4.27,4.27,0,0,1-3.36,1.63Z" style="fill:#263238"></path><g style="opacity:0.2"><polygon points="82.75 294.05 87.93 281.83 82.75 281.83 82.75 294.05" style="fill:#fff"></polygon></g><g style="opacity:0.2"><polygon points="90.82 294.05 96 281.83 90.82 281.83 90.82 294.05" style="fill:#fff"></polygon></g><rect x="84.3" y="282.87" width="1.9" height="4.31" style="fill:#263238"></rect><rect x="91.63" y="282.87" width="3.55" height="4.31" rx="1.73" style="fill:#263238"></rect><rect x="154.44" y="282.87" width="3.55" height="4.31" rx="1.73" style="fill:#263238"></rect><rect x="99.26" y="285.22" width="5.7" height="3.93" rx="1.51" style="fill:#263238"></rect><rect x="106.59" y="285.22" width="5.7" height="3.93" rx="1.51" style="fill:#263238"></rect><rect x="113.92" y="285.22" width="5.7" height="3.93" rx="1.51" style="fill:#263238"></rect><rect x="121.25" y="285.22" width="5.7" height="3.93" rx="1.51" style="fill:#263238"></rect><rect x="128.58" y="285.22" width="5.7" height="3.93" rx="1.51" style="fill:#263238"></rect><rect x="135.9" y="285.22" width="5.7" height="3.93" rx="1.51" style="fill:#263238"></rect><rect x="143.23" y="285.22" width="5.7" height="3.93" rx="1.51" style="fill:#263238"></rect><rect x="101.51" y="282.87" width="1.21" height="1.21" style="fill:#263238"></rect><rect x="145.48" y="282.87" width="1.21" height="1.21" style="fill:#263238"></rect><path d="M96.28,294.68H90.61v-13.1h5.67Zm-5.17-.5h4.67v-12.1H91.11Z" style="fill:#fff"></path><path d="M88.18,294.68H82.5v-13.1h5.68Zm-5.18-.5h4.68v-12.1H83Z" style="fill:#fff"></path><path d="M159.06,294.68h-5.68v-13.1h5.68Zm-5.18-.5h4.68v-12.1h-4.68Z" style="fill:#fff"></path><path d="M429.27,283l21.92,8.25c2.53,1,2.51,5,0,5.93a25.26,25.26,0,0,1-8.89,1.43H337V280.45h78.58A38.84,38.84,0,0,1,429.27,283Z" style="fill:#407BFF"></path><path d="M429.27,283l21.92,8.25c2.53,1,2.51,5,0,5.93a25.26,25.26,0,0,1-8.89,1.43H337V280.45h78.58A38.84,38.84,0,0,1,429.27,283Z" style="fill:#fff;opacity:0.5"></path><path d="M417.25,280.6l1,1.34s7.36,8.73,15.68,8.75c7.12,0,13.76,0,15.53,0H450s-5.14-1.82-10.66-3.84l-.54-.2c-3.35-1.22-6.8-2.51-9.28-3.49a1.09,1.09,0,0,0-.23-.09A38.79,38.79,0,0,0,417.25,280.6Z" style="fill:#fff;opacity:0.30000000000000004"></path><path d="M337,294.43v4.14H442.28a25.22,25.22,0,0,0,8.89-1.43,3,3,0,0,0,1.9-2.71Z" style="fill:#407BFF"></path><path d="M440.16,287.31,428.46,283H421.4a1.66,1.66,0,0,0-1.3,2.68h0a4.27,4.27,0,0,0,3.36,1.63Z" style="fill:#263238"></path><rect x="413.8" y="282.87" width="1.9" height="4.31" transform="translate(829.51 570.05) rotate(180)" style="fill:#263238"></rect><rect x="404.82" y="282.87" width="3.55" height="4.31" rx="1.73" transform="translate(813.18 570.05) rotate(-180)" style="fill:#263238"></rect><rect x="342.01" y="282.87" width="3.55" height="4.31" rx="1.73" transform="translate(687.56 570.05) rotate(180)" style="fill:#263238"></rect><rect x="395.04" y="285.22" width="5.7" height="3.93" rx="1.51" style="fill:#263238"></rect><rect x="387.71" y="285.22" width="5.7" height="3.93" rx="1.51" style="fill:#263238"></rect><rect x="380.38" y="285.22" width="5.7" height="3.93" rx="1.51" style="fill:#263238"></rect><rect x="373.05" y="285.22" width="5.7" height="3.93" rx="1.51" style="fill:#263238"></rect><rect x="365.72" y="285.22" width="5.7" height="3.93" rx="1.51" style="fill:#263238"></rect><rect x="358.39" y="285.22" width="5.7" height="3.93" rx="1.51" style="fill:#263238"></rect><rect x="351.06" y="285.22" width="5.7" height="3.93" rx="1.51" style="fill:#263238"></rect><rect x="397.29" y="282.87" width="1.21" height="1.21" transform="translate(795.78 566.94) rotate(180)" style="fill:#263238"></rect><rect x="353.31" y="282.87" width="1.21" height="1.21" transform="translate(707.83 566.94) rotate(180)" style="fill:#263238"></rect><path d="M409.39,294.68h-5.67v-13.1h5.67Zm-5.17-.5h4.67v-12.1h-4.67Z" style="fill:#fff"></path><path d="M417.5,294.68h-5.68v-13.1h5.68Zm-5.18-.5H417v-12.1h-4.68Z" style="fill:#fff"></path><path d="M346.62,294.68h-5.68v-13.1h5.68Zm-5.18-.5h4.68v-12.1h-4.68Z" style="fill:#fff"></path><rect x="164.9" y="280.45" width="83.79" height="18.12" style="fill:#407BFF"></rect><rect x="164.9" y="280.45" width="83.79" height="18.12" style="fill:#fff;opacity:0.5"></rect><polygon points="248.69 283.12 164.9 283.02 164.9 280.45 248.69 280.55 248.69 283.12" style="fill:#fff;opacity:0.30000000000000004"></polygon><rect x="164.9" y="294.43" width="83.79" height="4.14" style="fill:#407BFF"></rect><rect x="170.31" y="282.87" width="1.9" height="4.31" style="fill:#263238"></rect><rect x="177.65" y="282.87" width="3.55" height="4.31" rx="1.73" style="fill:#263238"></rect><rect x="240.46" y="282.87" width="3.55" height="4.31" rx="1.73" style="fill:#263238"></rect><rect x="185.27" y="285.22" width="5.7" height="3.93" rx="1.51" style="fill:#263238"></rect><rect x="192.6" y="285.22" width="5.7" height="3.93" rx="1.51" style="fill:#263238"></rect><rect x="199.93" y="285.22" width="5.7" height="3.93" rx="1.51" style="fill:#263238"></rect><rect x="207.26" y="285.22" width="5.7" height="3.93" rx="1.51" style="fill:#263238"></rect><rect x="214.59" y="285.22" width="5.7" height="3.93" rx="1.51" style="fill:#263238"></rect><rect x="221.92" y="285.22" width="5.7" height="3.93" rx="1.51" style="fill:#263238"></rect><rect x="229.25" y="285.22" width="5.7" height="3.93" rx="1.51" style="fill:#263238"></rect><rect x="187.52" y="282.87" width="1.21" height="1.21" style="fill:#263238"></rect><rect x="231.49" y="282.87" width="1.21" height="1.21" style="fill:#263238"></rect><path d="M182.3,294.68h-5.68v-13.1h5.68Zm-5.18-.5h4.68v-12.1h-4.68Z" style="fill:#fff"></path><path d="M174.19,294.68h-5.68v-13.1h5.68Zm-5.18-.5h4.68v-12.1H169Z" style="fill:#fff"></path><path d="M245.07,294.68h-5.68v-13.1h5.68Zm-5.18-.5h4.68v-12.1h-4.68Z" style="fill:#fff"></path><rect x="250.94" y="280.45" width="83.79" height="18.12" style="fill:#407BFF"></rect><rect x="250.94" y="280.45" width="83.79" height="18.12" style="fill:#fff;opacity:0.5"></rect><polygon points="334.7 283.12 250.91 283.02 250.91 280.45 334.7 280.55 334.7 283.12" style="fill:#fff;opacity:0.30000000000000004"></polygon><rect x="250.94" y="294.43" width="83.79" height="4.14" style="fill:#407BFF"></rect><rect x="256.35" y="282.87" width="1.9" height="4.31" style="fill:#263238"></rect><rect x="263.69" y="282.87" width="3.55" height="4.31" rx="1.73" style="fill:#263238"></rect><rect x="326.5" y="282.87" width="3.55" height="4.31" rx="1.73" style="fill:#263238"></rect><rect x="271.31" y="285.22" width="5.7" height="3.93" rx="1.51" style="fill:#263238"></rect><rect x="278.64" y="285.22" width="5.7" height="3.93" rx="1.51" style="fill:#263238"></rect><rect x="285.97" y="285.22" width="5.7" height="3.93" rx="1.51" style="fill:#263238"></rect><rect x="293.3" y="285.22" width="5.7" height="3.93" rx="1.51" style="fill:#263238"></rect><rect x="300.63" y="285.22" width="5.7" height="3.93" rx="1.51" style="fill:#263238"></rect><rect x="307.96" y="285.22" width="5.7" height="3.93" rx="1.51" style="fill:#263238"></rect><rect x="315.29" y="285.22" width="5.7" height="3.93" rx="1.51" style="fill:#263238"></rect><rect x="273.56" y="282.87" width="1.21" height="1.21" style="fill:#263238"></rect><rect x="317.54" y="282.87" width="1.21" height="1.21" style="fill:#263238"></rect><path d="M268.34,294.68h-5.68v-13.1h5.68Zm-5.18-.5h4.68v-12.1h-4.68Z" style="fill:#fff"></path><path d="M260.23,294.68h-5.67v-13.1h5.67Zm-5.17-.5h4.67v-12.1h-4.67Z" style="fill:#fff"></path><path d="M331.11,294.68h-5.67v-13.1h5.67Zm-5.17-.5h4.67v-12.1h-4.67Z" style="fill:#fff"></path><polygon points="63.53 287.31 70.05 287.31 77.85 283 71.54 283 63.53 287.31" style="fill:#fff;opacity:0.2"></polygon><path d="M75.84,287.31l4.4-2.85s.46,1.14-1.79,2.4a3.56,3.56,0,0,1-1.67.45Z" style="fill:#fff;opacity:0.2"></path><polygon points="436.53 287.31 430.01 287.31 422.21 283 428.52 283 436.53 287.31" style="fill:#fff;opacity:0.2"></polygon><path d="M424.22,287.31l-4.4-2.85s-.46,1.14,1.79,2.4a3.56,3.56,0,0,0,1.67.45Z" style="fill:#fff;opacity:0.2"></path><polygon points="86.2 282.87 84.3 287.18 84.3 282.87 86.2 282.87" style="fill:#fff;opacity:0.2"></polygon><polygon points="100.77 289.15 102.71 285.21 103.74 285.24 101.91 289.15 100.77 289.15" style="fill:#fff;opacity:0.2"></polygon><path d="M101.31,285.22l-1.77,3.28a1.43,1.43,0,0,1-.28-.86v-.91a1.5,1.5,0,0,1,1.51-1.51Z" style="fill:#fff;opacity:0.2"></path><path d="M93.67,283l-1.77,3.28a1.43,1.43,0,0,1-.28-.86v-.91A1.5,1.5,0,0,1,93.13,283Z" style="fill:#fff;opacity:0.2"></path><path d="M156.48,283l-1.77,3.28a1.43,1.43,0,0,1-.28-.86v-.91a1.5,1.5,0,0,1,1.51-1.51Z" style="fill:#fff;opacity:0.2"></path><polygon points="108.1 289.15 110.04 285.21 111.07 285.24 109.23 289.15 108.1 289.15" style="fill:#fff;opacity:0.2"></polygon><path d="M108.64,285.22l-1.77,3.28a1.43,1.43,0,0,1-.28-.86v-.91a1.5,1.5,0,0,1,1.51-1.51Z" style="fill:#fff;opacity:0.2"></path><polygon points="115.42 289.15 117.37 285.21 118.4 285.24 116.56 289.15 115.42 289.15" style="fill:#fff;opacity:0.2"></polygon><path d="M116,285.22l-1.77,3.28a1.43,1.43,0,0,1-.28-.86v-.91a1.5,1.5,0,0,1,1.51-1.51Z" style="fill:#fff;opacity:0.2"></path><polygon points="122.75 289.15 124.7 285.21 125.73 285.24 123.89 289.15 122.75 289.15" style="fill:#fff;opacity:0.2"></polygon><path d="M123.3,285.22l-1.77,3.28a1.43,1.43,0,0,1-.28-.86v-.91a1.5,1.5,0,0,1,1.51-1.51Z" style="fill:#fff;opacity:0.2"></path><polygon points="130.08 289.15 132.03 285.21 133.06 285.24 131.22 289.15 130.08 289.15" style="fill:#fff;opacity:0.2"></polygon><path d="M130.63,285.22l-1.77,3.28a1.37,1.37,0,0,1-.28-.86v-.91a1.5,1.5,0,0,1,1.51-1.51Z" style="fill:#fff;opacity:0.2"></path><polygon points="137.23 289.15 139.18 285.21 140.21 285.24 138.37 289.15 137.23 289.15" style="fill:#fff;opacity:0.2"></polygon><path d="M137.77,285.22,136,288.5a1.43,1.43,0,0,1-.28-.86v-.91a1.5,1.5,0,0,1,1.51-1.51Z" style="fill:#fff;opacity:0.2"></path><polygon points="144.75 289.15 146.69 285.21 147.72 285.24 145.88 289.15 144.75 289.15" style="fill:#fff;opacity:0.2"></polygon><path d="M145.29,285.22l-1.77,3.28a1.43,1.43,0,0,1-.28-.86v-.91a1.5,1.5,0,0,1,1.51-1.51Z" style="fill:#fff;opacity:0.2"></path><polygon points="172.1 282.88 170.2 287.2 170.2 282.88 172.1 282.88" style="fill:#fff;opacity:0.2"></polygon><polygon points="186.67 289.17 188.62 285.23 189.64 285.26 187.81 289.17 186.67 289.17" style="fill:#fff;opacity:0.2"></polygon><path d="M187.21,285.24l-1.77,3.28a1.43,1.43,0,0,1-.28-.86v-.91a1.5,1.5,0,0,1,1.51-1.51Z" style="fill:#fff;opacity:0.2"></path><path d="M179.57,283l-1.77,3.28a1.43,1.43,0,0,1-.28-.86v-.91A1.5,1.5,0,0,1,179,283Z" style="fill:#fff;opacity:0.2"></path><path d="M242.38,283l-1.77,3.28a1.43,1.43,0,0,1-.28-.86v-.91a1.5,1.5,0,0,1,1.51-1.51Z" style="fill:#fff;opacity:0.2"></path><polygon points="194 289.17 195.94 285.23 196.97 285.26 195.13 289.17 194 289.17" style="fill:#fff;opacity:0.2"></polygon><path d="M194.54,285.24l-1.77,3.28a1.43,1.43,0,0,1-.28-.86v-.91a1.5,1.5,0,0,1,1.51-1.51Z" style="fill:#fff;opacity:0.2"></path><polygon points="201.33 289.17 203.27 285.23 204.3 285.26 202.46 289.17 201.33 289.17" style="fill:#fff;opacity:0.2"></polygon><path d="M201.87,285.24l-1.77,3.28a1.43,1.43,0,0,1-.28-.86v-.91a1.5,1.5,0,0,1,1.51-1.51Z" style="fill:#fff;opacity:0.2"></path><polygon points="208.66 289.17 210.6 285.23 211.63 285.26 209.79 289.17 208.66 289.17" style="fill:#fff;opacity:0.2"></polygon><path d="M209.2,285.24l-1.77,3.28a1.43,1.43,0,0,1-.28-.86v-.91a1.5,1.5,0,0,1,1.51-1.51Z" style="fill:#fff;opacity:0.2"></path><polygon points="215.99 289.17 217.93 285.23 218.96 285.26 217.12 289.17 215.99 289.17" style="fill:#fff;opacity:0.2"></polygon><path d="M216.53,285.24l-1.77,3.28a1.43,1.43,0,0,1-.28-.86v-.91a1.5,1.5,0,0,1,1.51-1.51Z" style="fill:#fff;opacity:0.2"></path><polygon points="223.13 289.17 225.08 285.23 226.11 285.26 224.27 289.17 223.13 289.17" style="fill:#fff;opacity:0.2"></polygon><path d="M223.68,285.24l-1.77,3.28a1.43,1.43,0,0,1-.28-.86v-.91a1.5,1.5,0,0,1,1.51-1.51Z" style="fill:#fff;opacity:0.2"></path><polygon points="230.65 289.17 232.59 285.23 233.62 285.26 231.79 289.17 230.65 289.17" style="fill:#fff;opacity:0.2"></polygon><path d="M231.19,285.24l-1.77,3.28a1.43,1.43,0,0,1-.28-.86v-.91a1.5,1.5,0,0,1,1.51-1.51Z" style="fill:#fff;opacity:0.2"></path><polygon points="258.24 282.88 256.35 287.2 256.35 282.88 258.24 282.88" style="fill:#fff;opacity:0.2"></polygon><polygon points="272.81 289.17 274.76 285.23 275.79 285.26 273.95 289.17 272.81 289.17" style="fill:#fff;opacity:0.2"></polygon><path d="M273.36,285.24l-1.77,3.28a1.43,1.43,0,0,1-.28-.86v-.91a1.5,1.5,0,0,1,1.51-1.51Z" style="fill:#fff;opacity:0.2"></path><path d="M265.72,283,264,286.3a1.43,1.43,0,0,1-.28-.86v-.91a1.5,1.5,0,0,1,1.51-1.51Z" style="fill:#fff;opacity:0.2"></path><path d="M328.52,283l-1.77,3.28a1.43,1.43,0,0,1-.28-.86v-.91A1.5,1.5,0,0,1,328,283Z" style="fill:#fff;opacity:0.2"></path><polygon points="280.14 289.17 282.09 285.23 283.12 285.26 281.28 289.17 280.14 289.17" style="fill:#fff;opacity:0.2"></polygon><path d="M280.68,285.24l-1.77,3.28a1.43,1.43,0,0,1-.28-.86v-.91a1.5,1.5,0,0,1,1.51-1.51Z" style="fill:#fff;opacity:0.2"></path><polygon points="287.47 289.17 289.42 285.23 290.45 285.26 288.61 289.17 287.47 289.17" style="fill:#fff;opacity:0.2"></polygon><path d="M288,285.24l-1.77,3.28a1.43,1.43,0,0,1-.28-.86v-.91a1.5,1.5,0,0,1,1.51-1.51Z" style="fill:#fff;opacity:0.2"></path><polygon points="294.8 289.17 296.75 285.23 297.77 285.26 295.94 289.17 294.8 289.17" style="fill:#fff;opacity:0.2"></polygon><path d="M295.34,285.24l-1.77,3.28a1.43,1.43,0,0,1-.28-.86v-.91a1.5,1.5,0,0,1,1.51-1.51Z" style="fill:#fff;opacity:0.2"></path><polygon points="302.13 289.17 304.07 285.23 305.1 285.26 303.27 289.17 302.13 289.17" style="fill:#fff;opacity:0.2"></polygon><path d="M302.67,285.24l-1.77,3.28a1.43,1.43,0,0,1-.28-.86v-.91a1.5,1.5,0,0,1,1.51-1.51Z" style="fill:#fff;opacity:0.2"></path><polygon points="309.28 289.17 311.22 285.23 312.25 285.26 310.42 289.17 309.28 289.17" style="fill:#fff;opacity:0.2"></polygon><path d="M309.82,285.24l-1.77,3.28a1.43,1.43,0,0,1-.28-.86v-.91a1.5,1.5,0,0,1,1.51-1.51Z" style="fill:#fff;opacity:0.2"></path><polygon points="316.79 289.17 318.74 285.23 319.77 285.26 317.93 289.17 316.79 289.17" style="fill:#fff;opacity:0.2"></polygon><path d="M317.34,285.24l-1.77,3.28a1.43,1.43,0,0,1-.28-.86v-.91a1.5,1.5,0,0,1,1.51-1.51Z" style="fill:#fff;opacity:0.2"></path><polygon points="415.65 282.85 413.75 287.16 413.75 282.85 415.65 282.85" style="fill:#fff;opacity:0.2"></polygon><polygon points="352.62 289.13 354.57 285.2 355.6 285.23 353.76 289.13 352.62 289.13" style="fill:#fff;opacity:0.2"></polygon><path d="M353.16,285.2l-1.77,3.28a1.43,1.43,0,0,1-.28-.86v-.91a1.5,1.5,0,0,1,1.51-1.51Z" style="fill:#fff;opacity:0.2"></path><path d="M344.32,283l-1.77,3.28a1.43,1.43,0,0,1-.28-.86v-.91a1.5,1.5,0,0,1,1.51-1.51Z" style="fill:#fff;opacity:0.2"></path><path d="M406.93,283l-1.77,3.28a1.43,1.43,0,0,1-.28-.86v-.91a1.5,1.5,0,0,1,1.51-1.51Z" style="fill:#fff;opacity:0.2"></path><polygon points="359.95 289.13 361.89 285.2 362.92 285.23 361.09 289.13 359.95 289.13" style="fill:#fff;opacity:0.2"></polygon><path d="M360.49,285.2l-1.77,3.28a1.43,1.43,0,0,1-.28-.86v-.91A1.5,1.5,0,0,1,360,285.2Z" style="fill:#fff;opacity:0.2"></path><polygon points="367.28 289.13 369.22 285.2 370.25 285.23 368.42 289.13 367.28 289.13" style="fill:#fff;opacity:0.2"></polygon><path d="M367.82,285.2l-1.77,3.28a1.43,1.43,0,0,1-.28-.86v-.91a1.5,1.5,0,0,1,1.51-1.51Z" style="fill:#fff;opacity:0.2"></path><polygon points="374.61 289.13 376.55 285.2 377.58 285.23 375.74 289.13 374.61 289.13" style="fill:#fff;opacity:0.2"></polygon><path d="M375.15,285.2l-1.77,3.28a1.43,1.43,0,0,1-.28-.86v-.91a1.5,1.5,0,0,1,1.51-1.51Z" style="fill:#fff;opacity:0.2"></path><polygon points="381.94 289.13 383.88 285.2 384.91 285.23 383.07 289.13 381.94 289.13" style="fill:#fff;opacity:0.2"></polygon><path d="M382.48,285.2l-1.77,3.28a1.43,1.43,0,0,1-.28-.86v-.91a1.5,1.5,0,0,1,1.51-1.51Z" style="fill:#fff;opacity:0.2"></path><polygon points="389.08 289.13 391.03 285.2 392.06 285.23 390.22 289.13 389.08 289.13" style="fill:#fff;opacity:0.2"></polygon><path d="M389.63,285.2l-1.77,3.28a1.43,1.43,0,0,1-.28-.86v-.91a1.5,1.5,0,0,1,1.51-1.51Z" style="fill:#fff;opacity:0.2"></path><polygon points="396.6 289.13 398.55 285.2 399.57 285.23 397.74 289.13 396.6 289.13" style="fill:#fff;opacity:0.2"></polygon><path d="M397.14,285.2l-1.77,3.28a1.43,1.43,0,0,1-.28-.86v-.91a1.5,1.5,0,0,1,1.51-1.51Z" style="fill:#fff;opacity:0.2"></path><rect x="91.63" y="289.01" width="0.51" height="1.57" style="fill:#263238"></rect><rect x="154.19" y="289.01" width="0.51" height="1.57" style="fill:#263238"></rect><rect x="177.67" y="289.01" width="0.51" height="1.57" style="fill:#263238"></rect><rect x="240.22" y="289.01" width="0.51" height="1.57" style="fill:#263238"></rect><rect x="263.81" y="289.01" width="0.51" height="1.57" style="fill:#263238"></rect><rect x="326.37" y="289.01" width="0.51" height="1.57" style="fill:#263238"></rect><rect x="342.04" y="289.01" width="0.51" height="1.57" style="fill:#263238"></rect><rect x="404.6" y="289.01" width="0.51" height="1.57" style="fill:#263238"></rect><path d="M337,280.37v2.53h92.42l-.15-.06a38.79,38.79,0,0,0-12-2.47Z" style="fill:#fff;opacity:0.30000000000000004"></path></g><g id="freepik--Bridge--inject-20"><rect x="43.13" y="299.6" width="414.15" height="8.86" style="fill:#263238"></rect><path d="M157.58,308.45V382.4H143V351.58c0-22.81-17.84-42-40.64-42.84-.67,0-1.33,0-2,0s-1.35,0-2,0c-22.8.82-40.64,20-40.64,42.85V382.4H43.13V308.45H45.7V303.7h103v4.75Z" style="fill:#263238"></path><path d="M157.58,308.45V382.4H143V351.58c0-22.81-17.84-42-40.64-42.84-.67,0-1.33,0-2,0s-1.35,0-2,0c-22.8.82-40.64,20-40.64,42.85V382.4H43.13V308.45H45.7V303.7h103v4.75Z" style="fill:#fff;opacity:0.5"></path><path d="M257.35,308.45V382.4H242.78V351.58c0-22.81-17.84-42-40.65-42.84-.66,0-1.32,0-2,0s-1.36,0-2,0c-22.8.82-40.63,20-40.63,42.85V382.4H142.9V308.45h9V303.7h96.55v4.75Z" style="fill:#263238"></path><path d="M257.35,308.45V382.4H242.78V351.58c0-22.81-17.84-42-40.65-42.84-.66,0-1.32,0-2,0s-1.36,0-2,0c-22.8.82-40.63,20-40.63,42.85V382.4H142.9V308.45h9V303.7h96.55v4.75Z" style="fill:#fff;opacity:0.5"></path><path d="M357.33,308.45V382.4H342.76V351.58c0-22.81-17.84-42-40.65-42.84-.66,0-1.32,0-2,0s-1.36,0-2,0c-22.8.82-40.63,20-40.63,42.85V382.4H242.88V308.45h9V303.7H348.4v4.75Z" style="fill:#263238"></path><path d="M357.33,308.45V382.4H342.76V351.58c0-22.81-17.84-42-40.65-42.84-.66,0-1.32,0-2,0s-1.36,0-2,0c-22.8.82-40.63,20-40.63,42.85V382.4H242.88V308.45h9V303.7H348.4v4.75Z" style="fill:#fff;opacity:0.5"></path><path d="M457.2,308.45V382.4H442.63V351.58c0-22.81-17.84-42-40.65-42.84-.66,0-1.32,0-2,0s-1.36,0-2,0c-22.8.82-40.63,20-40.63,42.85V382.4H342.75V308.45h9V303.7h103.1v4.75Z" style="fill:#263238"></path><path d="M457.2,308.45V382.4H442.63V351.58c0-22.81-17.84-42-40.65-42.84-.66,0-1.32,0-2,0s-1.36,0-2,0c-22.8.82-40.63,20-40.63,42.85V382.4H342.75V308.45h9V303.7h103.1v4.75Z" style="fill:#fff;opacity:0.5"></path><rect x="45.7" y="303.7" width="102.97" height="2.38" style="opacity:0.2"></rect><rect x="151.61" y="303.7" width="97.04" height="2.38" style="opacity:0.2"></rect><rect x="251.5" y="303.7" width="96.93" height="2.38" style="opacity:0.2"></rect><rect x="351.46" y="303.7" width="103.4" height="2.38" style="opacity:0.2"></rect><rect x="141.51" y="340.74" width="17.47" height="7.84" style="fill:#263238"></rect><rect x="141.51" y="340.74" width="17.47" height="7.84" style="fill:#fff;opacity:0.6000000000000001"></rect><rect x="41.91" y="340.74" width="17.47" height="7.84" style="fill:#263238"></rect><rect x="41.91" y="340.74" width="17.47" height="7.84" style="fill:#fff;opacity:0.6000000000000001"></rect><rect x="341.17" y="340.74" width="17.47" height="7.84" style="fill:#263238"></rect><rect x="341.17" y="340.74" width="17.47" height="7.84" style="fill:#fff;opacity:0.6000000000000001"></rect><rect x="440.58" y="340.74" width="17.47" height="7.84" style="fill:#263238"></rect><rect x="440.58" y="340.74" width="17.47" height="7.84" style="fill:#fff;opacity:0.6000000000000001"></rect><rect x="241.17" y="340.74" width="17.47" height="7.84" style="fill:#263238"></rect><rect x="241.17" y="340.74" width="17.47" height="7.84" style="fill:#fff;opacity:0.6000000000000001"></rect><g style="opacity:0.2"><rect x="137.97" y="321.24" width="11.46" height="5.72" rx="2.58"></rect><rect x="151.06" y="321.24" width="11.46" height="5.72" rx="2.58"></rect><rect x="145.24" y="328.76" width="10.01" height="5.72" rx="2.58"></rect><rect x="251.3" y="318.38" width="11.46" height="5.72" rx="2.58"></rect><rect x="245.48" y="325.89" width="10.01" height="5.72" rx="2.58"></rect><rect x="337.62" y="318.38" width="11.46" height="5.72" rx="2.58"></rect><rect x="350.72" y="318.38" width="11.46" height="5.72" rx="2.58"></rect><rect x="344.9" y="325.89" width="10.01" height="5.72" rx="2.58"></rect><rect x="437.34" y="318.38" width="11.46" height="5.72" rx="2.58"></rect><rect x="444.62" y="325.89" width="10.01" height="5.72" rx="2.58"></rect><rect x="50.84" y="318.38" width="11.46" height="5.72" rx="2.58" transform="translate(113.14 642.48) rotate(180)"></rect><rect x="45.02" y="325.89" width="10.01" height="5.72" rx="2.58" transform="translate(100.04 657.51) rotate(180)"></rect></g><rect x="247.03" y="259.8" width="6.12" height="39.95" style="fill:#263238"></rect><rect x="247.03" y="259.8" width="6.12" height="39.95" style="fill:#fff;opacity:0.1"></rect></g></svg>
