<?xml version="1.0" encoding="iso-8859-1"?>
<!-- Uploaded to: SVG Repo, www.svgrepo.com, Generator: SVG Repo Mixer Tools -->
<svg height="800px" width="800px" version="1.1" id="Layer_1" xmlns="http://www.w3.org/2000/svg" xmlns:xlink="http://www.w3.org/1999/xlink" 
	 viewBox="0 0 295.244 295.244" xml:space="preserve">
<g>
	<g>
		<path style="fill:#F9BA48;" d="M51.319,114.288H28.571C12.814,114.288,0,101.473,0,85.716c0-13.99,10.295-25.838,23.91-28.081
			c6.695-11.952,19.457-19.538,33.233-19.538c15.867,0,29.81,9.6,35.514,24.452L51.319,114.288z"/>
		<path style="fill:#333333;" d="M266.667,266.669h-9.524h-28.571h-9.524h-28.571h-9.524h-28.571h-9.524h-28.571h-9.524H76.191
			h-9.524H38.095h-9.524H4.762H0v14.286c0,7.876,6.41,14.286,14.286,14.286s14.286-6.41,14.286-14.286v-4.762h9.524v4.762
			c0,7.876,6.41,14.286,14.286,14.286s14.286-6.41,14.286-14.286v-4.762h9.524v4.762c0,7.876,6.41,14.286,14.286,14.286
			s14.286-6.41,14.286-14.286v-4.762h9.524v4.762c0,7.876,6.41,14.286,14.286,14.286c7.876,0,14.286-6.41,14.286-14.286v-4.762
			h9.524v4.762c0,7.876,6.41,14.286,14.286,14.286c7.876,0,14.286-6.41,14.286-14.286v-4.762h9.524v4.762
			c0,7.876,6.41,14.286,14.286,14.286c7.876,0,14.286-6.41,14.286-14.286v-4.762h9.524v4.762c0,7.876,6.41,14.286,14.286,14.286
			c7.876,0,14.286-6.41,14.286-14.286v-4.762h9.524v4.762c0,7.876,6.41,14.286,14.286,14.286s14.286-6.41,14.286-14.286v-14.286
			h-4.762H266.667z M19.048,280.954c0,2.624-2.138,4.762-4.762,4.762s-4.762-2.138-4.762-4.762v-4.762h9.524V280.954z
			 M57.143,280.954c0,2.624-2.138,4.762-4.762,4.762s-4.762-2.138-4.762-4.762v-4.762h9.524
			C57.143,276.193,57.143,280.954,57.143,280.954z M95.238,280.954c0,2.624-2.138,4.762-4.762,4.762s-4.762-2.138-4.762-4.762
			v-4.762h9.524V280.954z M133.333,280.954c0,2.624-2.138,4.762-4.762,4.762c-2.624,0-4.762-2.138-4.762-4.762v-4.762h9.524V280.954
			z M171.429,280.954c0,2.624-2.138,4.762-4.762,4.762s-4.762-2.138-4.762-4.762v-4.762h9.524L171.429,280.954L171.429,280.954z
			 M209.524,280.954c0,2.624-2.138,4.762-4.762,4.762S200,283.578,200,280.954v-4.762h9.524L209.524,280.954L209.524,280.954z
			 M247.619,280.954c0,2.624-2.138,4.762-4.762,4.762s-4.762-2.138-4.762-4.762v-4.762h9.524L247.619,280.954L247.619,280.954z
			 M285.714,280.954c0,2.624-2.138,4.762-4.762,4.762s-4.762-2.138-4.762-4.762v-4.762h9.524V280.954z"/>
		<path style="fill:#333333;" d="M242.857,180.954H0v28.571v19.048v33.333h280.952c7.876,0,14.286-6.41,14.286-14.286v-14.286
			C295.238,204.454,271.738,180.954,242.857,180.954z M278.467,209.526c3.733,5.567,6.19,12.057,6.967,19.048h-28.29
			c-5.252,0-9.524-4.271-9.524-9.524s4.271-9.524,9.524-9.524H278.467z M9.524,209.526h19.048v19.048H9.524V209.526z
			 M280.952,252.383H9.524v-14.286h19.048c5.252,0,9.524-4.271,9.524-9.524v-19.048c0-5.252-4.271-9.524-9.524-9.524H9.524v-9.524
			h233.333c10.171,0,19.519,3.581,26.876,9.524h-12.59c-10.505,0-19.048,8.543-19.048,19.048s8.543,19.048,19.048,19.048h28.571
			v9.524C285.714,250.245,283.576,252.383,280.952,252.383z"/>
		<path style="fill:#333333;" d="M219.048,200.002H200c-5.252,0-9.524,4.271-9.524,9.524v19.048c0,5.252,4.271,9.524,9.524,9.524
			h19.048c5.252,0,9.524-4.271,9.524-9.524v-19.048C228.571,204.273,224.3,200.002,219.048,200.002z M219.048,228.573H200v-19.048
			h19.048V228.573z"/>
		<path style="fill:#333333;" d="M171.429,200.002h-19.048c-5.252,0-9.524,4.271-9.524,9.524v19.048
			c0,5.252,4.271,9.524,9.524,9.524h19.048c5.252,0,9.524-4.271,9.524-9.524v-19.048
			C180.952,204.273,176.681,200.002,171.429,200.002z M171.429,228.573h-19.048v-19.048h19.048V228.573z"/>
		<path style="fill:#333333;" d="M123.81,200.002h-19.048c-5.252,0-9.524,4.271-9.524,9.524v19.048c0,5.252,4.271,9.524,9.524,9.524
			h19.048c5.252,0,9.524-4.271,9.524-9.524v-19.048C133.333,204.273,129.062,200.002,123.81,200.002z M123.81,228.573h-19.048
			v-19.048h19.048V228.573z"/>
		<path style="fill:#333333;" d="M76.191,200.002H57.143c-5.252,0-9.524,4.271-9.524,9.524v19.048c0,5.252,4.271,9.524,9.524,9.524
			h19.048c5.252,0,9.524-4.271,9.524-9.524v-19.048C85.714,204.273,81.443,200.002,76.191,200.002z M76.191,228.573H57.143v-19.048
			h19.048V228.573z"/>
		<path style="fill:#333333;" d="M52.452,115.678l11.838,9.471c7.01,5.61,16.795,5.605,23.8,0l5.962-4.767
			c3.5-2.805,8.39-2.805,11.9,0l5.957,4.762c7.01,5.61,16.795,5.605,23.8,0l5.962-4.767c3.5-2.805,8.39-2.805,11.9,0l5.957,4.762
			c3.505,2.805,7.705,4.205,11.9,4.205c4.2,0,8.395-1.4,11.9-4.205l5.962-4.767c3.5-2.805,8.39-2.805,11.9,0l5.957,4.762
			c7.005,5.605,16.79,5.61,23.8,0l11.843-9.471l44,54l7.386-6.019l-77.733-95.381l-7.386,6.019l27.714,34.014l-11.776,9.419
			c-3.5,2.805-8.39,2.805-11.9,0l-5.957-4.762c-7.01-5.61-16.795-5.605-23.8,0l-5.962,4.767c-3.5,2.805-8.39,2.805-11.9,0
			l-5.957-4.762c-7.01-5.61-16.795-5.605-23.8,0l-5.962,4.767c-3.5,2.805-8.39,2.805-11.9,0l-5.957-4.762
			c-7.01-5.61-16.795-5.605-23.8,0l-5.962,4.767c-3.5,2.8-8.39,2.8-11.9,0l-11.776-9.419l49.029-60.176
			c2.733-3.357,6.771-5.276,11.081-5.276h58.095c3.981,0,7.833,1.748,10.576,4.8l7.081-6.367
			c-4.543-5.057-10.981-7.957-17.657-7.957h-58.095c-7.19,0-13.914,3.195-18.457,8.767L1.071,163.659l7.386,6.019L52.452,115.678z"
			/>
		<path style="fill:#F9BA48;" d="M271.428,76.192h-57.143c-15.757,0-28.571-12.814-28.571-28.571c0-13.99,10.3-25.838,23.91-28.081
			c6.695-11.952,19.452-19.538,33.233-19.538c18.105,0,33.61,12.805,37.257,30.257c9.048,3.529,15.124,12.214,15.124,22.124
			C295.238,65.512,284.557,76.192,271.428,76.192z"/>
	</g>
</g>
</svg>